<?xml version="1.0" encoding="UTF-8" standalone="no"?>
<!DOCTYPE svg PUBLIC "-//W3C//DTD SVG 1.1//EN"
 "http://www.w3.org/Graphics/SVG/1.1/DTD/svg11.dtd">
<!-- Generated by graphviz version 2.40.1 (20161225.0304)
 -->
<!-- Title: dependencies Pages: 1 -->
<svg width="504pt" height="284pt"
 viewBox="0.00 0.00 504.00 284.00" xmlns="http://www.w3.org/2000/svg" xmlns:xlink="http://www.w3.org/1999/xlink">
<g id="graph0" class="graph" transform="scale(1 1) rotate(0) translate(4 280)">
<title>dependencies</title>
<polygon fill="#ffffff" stroke="transparent" points="-4,4 -4,-280 500,-280 500,4 -4,4"/>
<text text-anchor="start" x="227.0091" y="-42.4" font-family="sans-serif" font-weight="bold" font-size="14.00" fill="#000000">Legend</text>
<polygon fill="#ffffb3" stroke="transparent" points="14,-10 14,-30 34,-30 34,-10 14,-10"/>
<text text-anchor="start" x="37.629" y="-15.4" font-family="sans-serif" font-size="14.00" fill="#000000"> &#160;Declarations</text>
<polygon fill="#8dd3c7" stroke="transparent" points="127,-10 127,-30 147,-30 147,-10 127,-10"/>
<text text-anchor="start" x="150.7251" y="-15.4" font-family="sans-serif" font-size="14.00" fill="#000000"> &#160;Module</text>
<polygon fill="#80b1d3" stroke="transparent" points="213,-10 213,-30 233,-30 233,-10 213,-10"/>
<text text-anchor="start" x="236.7812" y="-15.4" font-family="sans-serif" font-size="14.00" fill="#000000"> &#160;Bootstrap</text>
<polygon fill="#fdb462" stroke="transparent" points="310,-10 310,-30 330,-30 330,-10 310,-10"/>
<text text-anchor="start" x="333.6732" y="-15.4" font-family="sans-serif" font-size="14.00" fill="#000000"> &#160;Providers</text>
<polygon fill="#fb8072" stroke="transparent" points="406,-10 406,-30 426,-30 426,-10 406,-10"/>
<text text-anchor="start" x="429.7258" y="-15.4" font-family="sans-serif" font-size="14.00" fill="#000000"> &#160;Exports</text>
<g id="clust1" class="cluster">
<title>cluster_LoginRouteModule</title>
<polygon fill="none" stroke="#000000" stroke-dasharray="1,5" points="12.5,-70 12.5,-268 483.5,-268 483.5,-70 12.5,-70"/>
</g>
<g id="clust2" class="cluster">
<title>cluster_LoginRouteModule_declarations</title>
<polygon fill="none" stroke="#000000" points="98.5,-78 98.5,-130 475.5,-130 475.5,-78 98.5,-78"/>
</g>
<g id="clust5" class="cluster">
<title>cluster_LoginRouteModule_imports</title>
<polygon fill="none" stroke="#000000" points="20.5,-78 20.5,-130 90.5,-130 90.5,-78 20.5,-78"/>
</g>
<g id="clust6" class="cluster">
<title>cluster_LoginRouteModule_exports</title>
<polygon fill="none" stroke="#000000" points="56.5,-208 56.5,-260 440.5,-260 440.5,-208 56.5,-208"/>
</g>
<!-- LoginContainerMasterComponent -->
<g id="node1" class="node">
<title>LoginContainerMasterComponent</title>
<polygon fill="#ffffb3" stroke="#000000" points="467.8529,-122 259.1471,-122 259.1471,-86 467.8529,-86 467.8529,-122"/>
<text text-anchor="middle" x="363.5" y="-99.8" font-family="Times,serif" font-size="14.00" fill="#000000">LoginContainerMasterComponent</text>
</g>
<!-- LoginRouteModule -->
<g id="node3" class="node">
<title>LoginRouteModule</title>
<polygon fill="#8dd3c7" stroke="#000000" points="236.9356,-187 233.9356,-191 212.9356,-191 209.9356,-187 110.0644,-187 110.0644,-151 236.9356,-151 236.9356,-187"/>
<text text-anchor="middle" x="173.5" y="-164.8" font-family="Times,serif" font-size="14.00" fill="#000000">LoginRouteModule</text>
</g>
<!-- LoginContainerMasterComponent&#45;&gt;LoginRouteModule -->
<g id="edge1" class="edge">
<title>LoginContainerMasterComponent&#45;&gt;LoginRouteModule</title>
<path fill="none" stroke="#000000" d="M345.875,-122.1061C345.875,-141.3391 345.875,-169 345.875,-169 345.875,-169 247.1963,-169 247.1963,-169"/>
<polygon fill="#000000" stroke="#000000" points="247.1964,-165.5001 237.1963,-169 247.1963,-172.5001 247.1964,-165.5001"/>
</g>
<!-- UserCardComponent -->
<g id="node2" class="node">
<title>UserCardComponent</title>
<polygon fill="#ffffb3" stroke="#000000" points="240.9706,-122 106.0294,-122 106.0294,-86 240.9706,-86 240.9706,-122"/>
<text text-anchor="middle" x="173.5" y="-99.8" font-family="Times,serif" font-size="14.00" fill="#000000">UserCardComponent</text>
</g>
<!-- UserCardComponent&#45;&gt;LoginRouteModule -->
<g id="edge2" class="edge">
<title>UserCardComponent&#45;&gt;LoginRouteModule</title>
<path fill="none" stroke="#000000" d="M173.5,-122.1061C173.5,-122.1061 173.5,-140.991 173.5,-140.991"/>
<polygon fill="#000000" stroke="#000000" points="170.0001,-140.9909 173.5,-150.991 177.0001,-140.991 170.0001,-140.9909"/>
</g>
<!-- LoginContainerMasterComponent  -->
<g id="node5" class="node">
<title>LoginContainerMasterComponent </title>
<polygon fill="#fb8072" stroke="#000000" points="432.8531,-252 220.1469,-252 220.1469,-216 432.8531,-216 432.8531,-252"/>
<text text-anchor="middle" x="326.5" y="-229.8" font-family="Times,serif" font-size="14.00" fill="#000000">LoginContainerMasterComponent </text>
</g>
<!-- LoginRouteModule&#45;&gt;LoginContainerMasterComponent  -->
<g id="edge4" class="edge">
<title>LoginRouteModule&#45;&gt;LoginContainerMasterComponent </title>
<path fill="none" stroke="#000000" stroke-dasharray="5,2" d="M228.5205,-187.1061C228.5205,-187.1061 228.5205,-205.991 228.5205,-205.991"/>
<polygon fill="#000000" stroke="#000000" points="225.0206,-205.9909 228.5205,-215.991 232.0206,-205.991 225.0206,-205.9909"/>
</g>
<!-- UserCardComponent  -->
<g id="node6" class="node">
<title>UserCardComponent </title>
<polygon fill="#fb8072" stroke="#000000" points="202.9714,-252 64.0286,-252 64.0286,-216 202.9714,-216 202.9714,-252"/>
<text text-anchor="middle" x="133.5" y="-229.8" font-family="Times,serif" font-size="14.00" fill="#000000">UserCardComponent </text>
</g>
<!-- LoginRouteModule&#45;&gt;UserCardComponent  -->
<g id="edge5" class="edge">
<title>LoginRouteModule&#45;&gt;UserCardComponent </title>
<path fill="none" stroke="#000000" stroke-dasharray="5,2" d="M156.509,-187.1061C156.509,-187.1061 156.509,-205.991 156.509,-205.991"/>
<polygon fill="#000000" stroke="#000000" points="153.009,-205.9909 156.509,-215.991 160.009,-205.991 153.009,-205.9909"/>
</g>
<!-- routes -->
<g id="node4" class="node">
<title>routes</title>
<polygon fill="#8dd3c7" stroke="#000000" points="82.5,-122 79.5,-126 58.5,-126 55.5,-122 28.5,-122 28.5,-86 82.5,-86 82.5,-122"/>
<text text-anchor="middle" x="55.5" y="-99.8" font-family="Times,serif" font-size="14.00" fill="#000000">routes</text>
</g>
<!-- routes&#45;&gt;LoginRouteModule -->
<g id="edge3" class="edge">
<title>routes&#45;&gt;LoginRouteModule</title>
<path fill="none" stroke="#000000" d="M73.3824,-122.1061C73.3824,-141.3391 73.3824,-169 73.3824,-169 73.3824,-169 100.094,-169 100.094,-169"/>
<polygon fill="#000000" stroke="#000000" points="100.094,-172.5001 110.094,-169 100.0939,-165.5001 100.094,-172.5001"/>
</g>
</g>
</svg>
