<?xml version="1.0" encoding="UTF-8"?>
<svg width="320px" height="308px" viewBox="0 0 320 308" version="1.1" xmlns="http://www.w3.org/2000/svg" xmlns:xlink="http://www.w3.org/1999/xlink">
    <!-- Generator: Sketch 48.2 (47327) - http://www.bohemiancoding.com/sketch -->
    <title>Group 17</title>
    <desc>Created with Sketch.</desc>
    <defs>
        <polygon id="path-1" points="0 28.7106589 119.125516 147.632207 224.822223 119.360438 105.696707 0.437676545"></polygon>
        <filter x="-3.1%" y="-2.0%" width="105.3%" height="108.2%" filterUnits="objectBoundingBox" id="filter-2">
            <feOffset dx="-1" dy="3" in="SourceAlpha" result="shadowOffsetOuter1"></feOffset>
            <feGaussianBlur stdDeviation="1.5" in="shadowOffsetOuter1" result="shadowBlurOuter1"></feGaussianBlur>
            <feColorMatrix values="0 0 0 0 0   0 0 0 0 0   0 0 0 0 0  0 0 0 0.2 0" type="matrix" in="shadowBlurOuter1"></feColorMatrix>
        </filter>
        <polygon id="path-3" points="0.920618868 0.62055 15.0618868 0.62055 15.0618868 9.01425 0.920618868 9.01425"></polygon>
        <filter x="-3.5%" y="-2.7%" width="105.7%" height="110.7%" filterUnits="objectBoundingBox" id="filter-5">
            <feOffset dx="-1" dy="2" in="SourceAlpha" result="shadowOffsetOuter1"></feOffset>
            <feGaussianBlur stdDeviation="1" in="shadowOffsetOuter1" result="shadowBlurOuter1"></feGaussianBlur>
            <feColorMatrix values="0 0 0 0 0   0 0 0 0 0   0 0 0 0 0  0 0 0 0.15 0" type="matrix" in="shadowBlurOuter1" result="shadowMatrixOuter1"></feColorMatrix>
            <feMerge>
                <feMergeNode in="shadowMatrixOuter1"></feMergeNode>
                <feMergeNode in="SourceGraphic"></feMergeNode>
            </feMerge>
        </filter>
        <filter x="-2.1%" y="-2.0%" width="103.4%" height="108.0%" filterUnits="objectBoundingBox" id="filter-6">
            <feOffset dx="-1" dy="2" in="SourceAlpha" result="shadowOffsetOuter1"></feOffset>
            <feGaussianBlur stdDeviation="1" in="shadowOffsetOuter1" result="shadowBlurOuter1"></feGaussianBlur>
            <feColorMatrix values="0 0 0 0 0   0 0 0 0 0   0 0 0 0 0  0 0 0 0.15 0" type="matrix" in="shadowBlurOuter1" result="shadowMatrixOuter1"></feColorMatrix>
            <feMerge>
                <feMergeNode in="shadowMatrixOuter1"></feMergeNode>
                <feMergeNode in="SourceGraphic"></feMergeNode>
            </feMerge>
        </filter>
        <polygon id="path-7" points="0.000426666667 0.18596624 12.0626743 0.18596624 12.0626743 8.47058824 0.000426666667 8.47058824"></polygon>
        <polygon id="path-9" points="0.891413333 0.0522 13.9786667 0.0522 13.9786667 7.90761176 0.891413333 7.90761176"></polygon>
    </defs>
    <g id="Artboard" stroke="none" stroke-width="1" fill="none" fill-rule="evenodd">
        <g id="Group-17">
            <rect id="Rectangle-7" fill="#F5F5F5" x="0" y="0" width="320" height="308"></rect>
            <g id="Group-16" transform="translate(35.000000, 13.000000)">
                <g id="Group-6" transform="translate(27.000000, 134.000000)">
                    <g id="Group-9" transform="translate(0.072000, 0.865385)">
                        <g id="Fill-1">
                            <use fill="black" fill-opacity="1" filter="url(#filter-2)" xlink:href="#path-1"></use>
                            <use fill="#9E9E9E" fill-rule="evenodd" xlink:href="#path-1"></use>
                        </g>
                        <polygon id="Fill-2" fill-opacity="0.9" fill="#2C2C2C" points="8.66848195 31.4179177 54.4699019 19.166373 79.288579 43.9413414 33.4859432 56.1928862"></polygon>
                        <polygon id="Fill-3" fill="#5B5B5B" points="59.1676144 17.9099038 104.969034 5.65835908 129.787711 30.4333276 83.9850756 42.6848723"></polygon>
                        <polygon id="Fill-4" fill="#5B5B5B" points="66.2461593 88.8970098 112.047579 76.645465 136.866256 101.420433 91.0636206 113.671978"></polygon>
                        <polygon id="Fill-5" fill="#5B5B5B" points="116.745292 75.3889959 162.546712 63.1374511 187.365389 87.9124196 141.562753 100.163964"></polygon>
                        <polygon id="Fill-6" fill="#5B5B5B" points="37.4573206 60.1574637 83.2587406 47.905919 108.077418 72.6808875 62.2747819 84.9324322"></polygon>
                        <polygon id="Fill-7" fill="#5B5B5B" points="87.956453 46.6494499 133.757873 34.3979051 158.57655 59.1728736 112.773914 71.4244183"></polygon>
                        <polygon id="Fill-8" fill="#5B5B5B" points="95.034998 117.636556 140.836418 105.385011 165.655095 130.15998 119.852459 142.411524"></polygon>
                        <polygon id="Fill-9" fill="#5B5B5B" points="145.53413 104.128542 191.33555 91.8769972 216.154227 116.651966 170.351592 128.90351"></polygon>
                    </g>
                </g>
                <g id="Page-1" transform="translate(111.000000, 198.000000)">
                    <polygon id="Fill-1" fill="#FFFFFF" points="6.80590189 11.254005 9.91971321 17.151855 2.34386415 12.441555 0.000316981132 13.066305 7.36061887 20.379555 9.15473208 19.901805 7.14295849 17.903655 3.49450566 14.504805 11.3186566 19.326405 12.5517132 18.997755 9.41676981 12.921405 12.7102038 16.421055 14.723034 18.419205 16.5213736 17.940405 9.1610717 10.627155"></polygon>
                    <path d="M17.7063547,14.16702 L19.8829585,13.58742 L16.0326943,11.14092 L17.7063547,14.16702 Z M21.5957132,14.67837 L18.4491472,15.51627 L19.3673358,17.18262 L17.4612226,17.69082 L13.3415245,9.51342 L15.0046189,9.07137 L25.6234868,15.51732 L23.7152604,16.02552 L21.5957132,14.67837 Z" id="Fill-2" fill="#FFFFFF"></path>
                    <g id="Group-12" transform="translate(20.075472, 0.429870)">
                        <path d="M8.94499623,11.748975 C8.81714717,11.621925 8.67978868,11.513775 8.53292075,11.422425 C8.38710943,11.333175 8.20748679,11.260725 7.99299623,11.206125 C7.77956226,11.153625 7.52069434,11.114775 7.21533585,11.089575 C6.90997736,11.064375 6.53382642,11.051775 6.09005283,11.051775 C5.58182642,11.049675 5.08627925,11.029725 4.5981283,10.989825 C4.10997736,10.948875 3.64190189,10.873275 3.19390189,10.763025 C2.74484528,10.650675 2.32326038,10.496325 1.93126038,10.298925 C1.53820377,10.102575 1.1821283,9.845325 0.861977358,9.526125 C0.555562264,9.222675 0.35269434,8.922375 0.255486792,8.626275 C0.160392453,8.332275 0.163562264,8.057175 0.270279245,7.805175 C0.376996226,7.551075 0.57669434,7.323225 0.869373585,7.119525 C1.16310943,6.914775 1.5456,6.750975 2.01473208,6.626025 C2.4976,6.497925 2.99209057,6.437025 3.50031698,6.444375 C4.0085434,6.451725 4.50303396,6.519975 4.98378868,6.645975 C5.4645434,6.771975 5.92099623,6.953625 6.34997736,7.188825 C6.77895849,7.425075 7.15933585,7.706475 7.49005283,8.035125 L5.69593962,8.512875 C5.54061887,8.358525 5.36839245,8.224125 5.18031698,8.108625 C4.9901283,7.994175 4.78831698,7.905975 4.57488302,7.844025 C4.36039245,7.781025 4.13744906,7.747425 3.90605283,7.744275 C3.6746566,7.740075 3.43692075,7.770525 3.19495849,7.834575 C2.95933585,7.897575 2.7765434,7.974225 2.64658113,8.063475 C2.51661887,8.153775 2.43420377,8.252475 2.39827925,8.358525 C2.36341132,8.466675 2.36658113,8.579025 2.4130717,8.699775 C2.46061887,8.818425 2.54197736,8.936025 2.66137358,9.054675 C2.90333585,9.294075 3.2530717,9.457875 3.70952453,9.541875 C4.16703396,9.626925 4.74816604,9.663675 5.45609057,9.653175 C6.05518491,9.651075 6.61095849,9.677325 7.12341132,9.731925 C7.63586415,9.786525 8.10816604,9.876825 8.54137358,10.003875 C8.97458113,10.130925 9.37292075,10.295775 9.73533585,10.501575 C10.0988075,10.705275 10.4316377,10.959375 10.734883,11.260725 C11.0592604,11.582025 11.2716377,11.888625 11.3751849,12.179475 C11.4776755,12.470325 11.4787321,12.738075 11.3783547,12.984825 C11.2758642,13.229475 11.0782792,13.451025 10.780317,13.646325 C10.4855245,13.841625 10.0988075,14.003325 9.62122264,14.131425 C9.33276981,14.208075 9.02424151,14.263725 8.69563774,14.297325 C8.36597736,14.331975 8.02786415,14.340375 7.67918491,14.322525 C7.33050566,14.304675 6.9786566,14.261625 6.62363774,14.189175 C6.26967547,14.118825 5.91888302,14.015925 5.57548679,13.881525 C5.23103396,13.749225 4.89820377,13.582275 4.57699623,13.381725 C4.25684528,13.180125 3.95782642,12.942825 3.68205283,12.667725 L5.48144906,12.187875 C5.70439245,12.409425 5.93367547,12.585825 6.17246792,12.717075 C6.41231698,12.848325 6.65322264,12.942825 6.89835472,12.997425 C7.1456,13.054125 7.39495849,13.076175 7.6496,13.063575 C7.90635472,13.049925 8.16310943,13.008975 8.42197736,12.940725 C8.65337358,12.878775 8.83405283,12.804225 8.96295849,12.716025 C9.09186415,12.628875 9.17533585,12.534375 9.21231698,12.429375 C9.24929811,12.326475 9.24401509,12.216225 9.19541132,12.099675 C9.14575094,11.983125 9.06333585,11.866575 8.94499623,11.748975" id="Fill-3" fill="#FFFFFF"></path>
                        <polygon id="Fill-5" fill="#FFFFFF" points="14.3126491 5.027505 11.6457811 5.738355 17.7761962 11.830455 15.9831396 12.309255 9.85166792 6.216105 7.22072453 6.915405 5.99295094 5.695305 13.0848755 3.807405"></polygon>
                        <polygon id="Fill-7" fill="#FFFFFF" points="23.5156679 6.28362 20.0711396 7.20027 22.0417057 9.15957 26.0853283 8.08332 27.3035925 9.29397 21.4669132 10.84902 14.1076679 3.53577 19.9316679 1.98387 21.1604981 3.20397 17.1284981 4.27812 18.8824604 6.02112 22.3280453 5.10342"></polygon>
                        <g id="Group-11" transform="translate(20.075472, 0.000000)">
                            <mask id="mask-4" fill="white">
                                <use xlink:href="#path-3"></use>
                            </mask>
                            <g id="Clip-10"></g>
                            <path d="M6.15186415,4.6389 L7.59835472,4.25355 C7.83397736,4.1895 8.0146566,4.1097 8.13933585,4.0089 C8.2650717,3.91125 8.33797736,3.79785 8.35910943,3.6708 C8.38129811,3.5448 8.35593962,3.40725 8.28197736,3.2592 C8.2090717,3.11115 8.08967547,2.9547 7.92484528,2.78985 C7.57827925,2.44545 7.18733585,2.205 6.75518491,2.06955 C6.32303396,1.9341 5.86552453,1.93095 5.38371321,2.05905 L3.94250566,2.4423 L6.15186415,4.6389 Z M8.80922264,5.47785 L7.37963774,5.859 L10.075034,8.5365 L8.28092075,9.01425 L0.920618868,1.69995 L4.15593962,0.83895 C4.65888302,0.7056 5.1565434,0.63315 5.64997736,0.6216 C6.14552453,0.6111 6.62416604,0.66255 7.08695849,0.7749 C7.54869434,0.8883 7.99141132,1.06155 8.41616604,1.29675 C8.83880755,1.53195 9.23292075,1.8312 9.59744906,2.1924 C9.86793962,2.4612 10.0729208,2.71005 10.2155623,2.9421 C10.3571472,3.17415 10.4437887,3.39045 10.4754868,3.59205 C10.5061283,3.79365 10.488166,3.98265 10.4216,4.15695 C10.3560906,4.33125 10.248317,4.49715 10.0993358,4.6515 L14.9903547,7.13895 L15.0622038,7.20825 L13.1360151,7.7217 L8.80922264,5.47785 Z" id="Fill-9" fill="#FFFFFF" mask="url(#mask-4)"></path>
                        </g>
                    </g>
                </g>
                <g id="Group-10" transform="translate(65.000000, 142.000000)">
                    <path d="M3.5,19.4090909 L3.5,5.46409862" id="Line" stroke="#F44336" stroke-linecap="square"></path>
                    <polygon id="Triangle" fill="#F44336" points="3.5 0 7 7 0 7"></polygon>
                </g>
                <g id="Group-13" transform="translate(1.000000, 73.000000)" fill="#2C2C2C" fill-opacity="0.5" opacity="0.31810462">
                    <g id="Group-8" filter="url(#filter-5)">
                        <g id="Group-7">
                            <polygon id="Fill-10" points="0 24.6209615 91.3710105 0 140.882742 49.7882967 49.509306 74.4092582"></polygon>
                        </g>
                    </g>
                </g>
                <text id="(Transition-state)" font-family="Roboto-Italic, Roboto" font-size="8" font-style="italic" font-weight="normal" fill="#FFFFFF">
                    <tspan x="43" y="114">(Transition state)</tspan>
                </text>
                <g id="Group-8-Copy" filter="url(#filter-6)">
                    <g id="Group-7">
                        <polygon id="Fill-10" fill-opacity="0.9" fill="#2C2C2C" points="0.74729655 49.5750206 92.1183071 24.9540591 141.630039 74.7423558 50.2566026 99.3633173"></polygon>
                        <polygon id="Fill-11" fill="#5B5B5B" points="92.1185496 24.954303 183.48956 0.333341444 233.001292 50.1216381 141.627856 74.7425997"></polygon>
                        <g id="Page-1" transform="translate(49.000000, 53.153846)">
                            <g id="Group-3" transform="translate(0.000000, 8.477741)">
                                <mask id="mask-8" fill="white">
                                    <use xlink:href="#path-7"></use>
                                </mask>
                                <g id="Clip-2"></g>
                                <path d="M3.05109333,1.84362353 L8.01109333,6.76715294 L8.88682667,6.53421176 C9.60362667,6.34362353 9.94922667,6.00056471 9.92256,5.50397647 C9.89802667,5.00844706 9.51509333,4.39221176 8.77269333,3.65527059 L8.42602667,3.31115294 C7.66976,2.56150588 6.91242667,2.04162353 6.15189333,1.75362353 C5.39349333,1.46668235 4.65749333,1.41691765 3.94496,1.60538824 L3.05109333,1.84362353 Z M7.42976,8.4708 L0.000426666667,1.09503529 L2.70549333,0.375035294 C3.29642667,0.218329412 3.92469333,0.159035294 4.58816,0.197152941 C5.25376,0.237388235 5.91829333,0.365505882 6.58176,0.580447059 C7.24629333,0.796447059 7.89376,1.09291765 8.52629333,1.47303529 C9.15882667,1.85315294 9.74016,2.30632941 10.27136,2.83362353 L10.6084267,3.16715294 C11.13856,3.69444706 11.52256,4.19950588 11.76256,4.68127059 C12.0004267,5.16409412 12.0974933,5.60774118 12.0516267,6.01115294 C12.0078933,6.41456471 11.82336,6.76609412 11.4980267,7.06785882 C11.1726933,7.36750588 10.71296,7.59727059 10.1166933,7.75503529 L7.42976,8.4708 Z" id="Fill-1" fill="#FFFFFF" mask="url(#mask-8)"></path>
                            </g>
                            <polygon id="Fill-4" fill="#FFFFFF" points="17.5333333 10.2076471 14.056 11.132 16.0453333 13.1077647 20.1274667 12.0224706 21.3584 13.2432941 15.4661333 14.8114118 8.03573333 7.43564706 13.9152 5.87176471 15.1557333 7.10211765 11.0864 8.18423529 12.8570667 9.94188235 16.3344 9.01752941"></polygon>
                            <polygon id="Fill-6" fill="#FFFFFF" points="22.96768 5.02417647 20.2754133 5.741 26.4642133 11.8842941 24.65408 12.3671176 18.4631467 6.22276471 15.8071467 6.929 14.56768 5.69864706 21.7282133 3.79382353"></polygon>
                            <path d="M28.97088,7.73116471 L31.1682133,7.14669412 L27.2823467,4.67963529 L28.97088,7.73116471 Z M32.89728,8.24681176 L29.7218133,9.09175294 L30.6487467,10.7721059 L28.7234133,11.2835176 L24.5655467,3.03845882 L26.2434133,2.59269412 L36.9634133,9.09281176 L35.0370133,9.60528235 L32.89728,8.24681176 Z" id="Fill-8" fill="#FFFFFF"></path>
                            <polygon id="Fill-10" fill="#FFFFFF" points="39.7104 8.36190588 37.8992 8.84367059 30.4698667 1.46790588 32.2810667 0.9872"></polygon>
                            <g id="Group-14" transform="translate(33.066667, 0.007153)">
                                <mask id="mask-10" fill="white">
                                    <use xlink:href="#path-9"></use>
                                </mask>
                                <g id="Clip-13"></g>
                                <polygon id="Fill-12" fill="#FFFFFF" mask="url(#mask-10)" points="8.90314667 6.20608235 12.7474133 5.1822 13.9794133 6.40408235 8.32181333 7.90761176 0.891413333 0.533964706 2.70368 0.0522"></polygon>
                            </g>
                        </g>
                    </g>
                </g>
            </g>
        </g>
    </g>
</svg>