<?xml version="1.0" encoding="UTF-8"?>
<svg width="320px" height="308px" viewBox="0 0 320 308" version="1.1" xmlns="http://www.w3.org/2000/svg" xmlns:xlink="http://www.w3.org/1999/xlink">
    <!-- Generator: Sketch 48.2 (47327) - http://www.bohemiancoding.com/sketch -->
    <title>Group 15</title>
    <desc>Created with Sketch.</desc>
    <defs>
        <rect id="path-1" x="0" y="0" width="320" height="308"></rect>
        <polygon id="path-3" points="0 28.7106589 119.125516 147.632207 224.822223 119.360438 105.696707 0.437676545"></polygon>
        <filter x="-3.1%" y="-2.0%" width="105.3%" height="108.2%" filterUnits="objectBoundingBox" id="filter-4">
            <feOffset dx="-1" dy="3" in="SourceAlpha" result="shadowOffsetOuter1"></feOffset>
            <feGaussianBlur stdDeviation="1.5" in="shadowOffsetOuter1" result="shadowBlurOuter1"></feGaussianBlur>
            <feColorMatrix values="0 0 0 0 0   0 0 0 0 0   0 0 0 0 0  0 0 0 0.2 0" type="matrix" in="shadowBlurOuter1"></feColorMatrix>
        </filter>
        <polygon id="path-5" points="0 28.7106589 119.125516 147.632207 224.822223 119.360438 105.696707 0.437676545"></polygon>
        <filter x="-3.1%" y="-2.0%" width="105.3%" height="108.2%" filterUnits="objectBoundingBox" id="filter-6">
            <feOffset dx="-1" dy="3" in="SourceAlpha" result="shadowOffsetOuter1"></feOffset>
            <feGaussianBlur stdDeviation="1.5" in="shadowOffsetOuter1" result="shadowBlurOuter1"></feGaussianBlur>
            <feColorMatrix values="0 0 0 0 0   0 0 0 0 0   0 0 0 0 0  0 0 0 0.2 0" type="matrix" in="shadowBlurOuter1"></feColorMatrix>
        </filter>
        <polygon id="path-7" points="0.920618868 0.62055 15.0618868 0.62055 15.0618868 9.01425 0.920618868 9.01425"></polygon>
        <polygon id="path-9" points="0 0.0260672832 12.5837548 0.0260672832 12.5837548 8.57110714 0 8.57110714"></polygon>
        <polygon id="path-11" points="0.0123580247 0.751071429 12.0177695 0.751071429 12.0177695 9.1335 0.0123580247 9.1335"></polygon>
        <filter x="-2.1%" y="-2.0%" width="103.4%" height="108.0%" filterUnits="objectBoundingBox" id="filter-13">
            <feOffset dx="-1" dy="2" in="SourceAlpha" result="shadowOffsetOuter1"></feOffset>
            <feGaussianBlur stdDeviation="1" in="shadowOffsetOuter1" result="shadowBlurOuter1"></feGaussianBlur>
            <feColorMatrix values="0 0 0 0 0   0 0 0 0 0   0 0 0 0 0  0 0 0 0.15 0" type="matrix" in="shadowBlurOuter1" result="shadowMatrixOuter1"></feColorMatrix>
            <feMerge>
                <feMergeNode in="shadowMatrixOuter1"></feMergeNode>
                <feMergeNode in="SourceGraphic"></feMergeNode>
            </feMerge>
        </filter>
        <polygon id="path-14" points="0.000426666667 0.18596624 12.0626743 0.18596624 12.0626743 8.47058824 0.000426666667 8.47058824"></polygon>
        <polygon id="path-16" points="0.891413333 0.0522 13.9786667 0.0522 13.9786667 7.90761176 0.891413333 7.90761176"></polygon>
        <linearGradient x1="50%" y1="0%" x2="50%" y2="84.0860172%" id="linearGradient-18">
            <stop stop-color="#F5F5F5" stop-opacity="0" offset="0%"></stop>
            <stop stop-color="#F5F5F5" offset="100%"></stop>
        </linearGradient>
    </defs>
    <g id="iPhone-SE-Copy-4" stroke="none" stroke-width="1" fill="none" fill-rule="evenodd" transform="translate(0.000000, -323.000000)">
        <g id="Group-15" transform="translate(0.000000, 323.000000)">
            <mask id="mask-2" fill="white">
                <use xlink:href="#path-1"></use>
            </mask>
            <use id="Rectangle-7" fill="#F5F5F5" xlink:href="#path-1"></use>
            <rect id="Rectangle-7" fill="#F5F5F5" mask="url(#mask-2)" x="0" y="0" width="320" height="318"></rect>
            <g id="Group-6" mask="url(#mask-2)">
                <g transform="translate(62.000000, 97.000000)">
                    <g id="Group-9-Copy" transform="translate(0.072000, 56.923077)">
                        <g id="Fill-1">
                            <use fill="black" fill-opacity="1" filter="url(#filter-4)" xlink:href="#path-3"></use>
                            <use fill="#9E9E9E" fill-rule="evenodd" xlink:href="#path-3"></use>
                        </g>
                        <polygon id="Fill-2" fill="#5B5B5B" points="8.66848195 31.4179177 54.4699019 19.166373 79.288579 43.9413414 33.4859432 56.1928862"></polygon>
                        <polygon id="Fill-3" fill-opacity="0.5" fill="#414141" points="59.1676144 17.9099038 104.969034 5.65835908 129.787711 30.4333276 83.9850756 42.6848723"></polygon>
                        <polygon id="Fill-4" fill="#5B5B5B" points="66.2461593 88.8970098 112.047579 76.645465 136.866256 101.420433 91.0636206 113.671978"></polygon>
                        <polygon id="Fill-5" fill="#5B5B5B" points="116.745292 75.3889959 162.546712 63.1374511 187.365389 87.9124196 141.562753 100.163964"></polygon>
                        <polygon id="Fill-6" fill="#5B5B5B" points="37.4573206 60.1574637 83.2587406 47.905919 108.077418 72.6808875 62.2747819 84.9324322"></polygon>
                        <polygon id="Fill-7" fill-opacity="0.5" fill="#414141" points="87.956453 46.6494499 133.757873 34.3979051 158.57655 59.1728736 112.773914 71.4244183"></polygon>
                        <polygon id="Fill-8" fill="#5B5B5B" points="95.034998 117.636556 140.836418 105.385011 165.655095 130.15998 119.852459 142.411524"></polygon>
                        <polygon id="Fill-9" fill="#5B5B5B" points="145.53413 104.128542 191.33555 91.8769972 216.154227 116.651966 170.351592 128.90351"></polygon>
                    </g>
                    <g id="Group-9" transform="translate(0.072000, 0.865385)">
                        <g id="Fill-1">
                            <use fill="black" fill-opacity="1" filter="url(#filter-6)" xlink:href="#path-5"></use>
                            <use fill="#9E9E9E" fill-rule="evenodd" xlink:href="#path-5"></use>
                        </g>
                        <polygon id="Fill-2" fill-opacity="0.9" fill="#2C2C2C" points="8.66848195 31.4179177 54.4699019 19.166373 79.288579 43.9413414 33.4859432 56.1928862"></polygon>
                        <polygon id="Fill-3" fill="#5B5B5B" points="59.1676144 17.9099038 104.969034 5.65835908 129.787711 30.4333276 83.9850756 42.6848723"></polygon>
                        <polygon id="Fill-4" fill="#5B5B5B" points="66.2461593 88.8970098 112.047579 76.645465 136.866256 101.420433 91.0636206 113.671978"></polygon>
                        <polygon id="Fill-5" fill="#5B5B5B" points="116.745292 75.3889959 162.546712 63.1374511 187.365389 87.9124196 141.562753 100.163964"></polygon>
                        <polygon id="Fill-6" fill="#5B5B5B" points="37.4573206 60.1574637 83.2587406 47.905919 108.077418 72.6808875 62.2747819 84.9324322"></polygon>
                        <polygon id="Fill-7" fill="#5B5B5B" points="87.956453 46.6494499 133.757873 34.3979051 158.57655 59.1728736 112.773914 71.4244183"></polygon>
                        <polygon id="Fill-8" fill="#5B5B5B" points="95.034998 117.636556 140.836418 105.385011 165.655095 130.15998 119.852459 142.411524"></polygon>
                        <polygon id="Fill-9" fill="#5B5B5B" points="145.53413 104.128542 191.33555 91.8769972 216.154227 116.651966 170.351592 128.90351"></polygon>
                    </g>
                </g>
            </g>
            <g id="Page-1" mask="url(#mask-2)">
                <g transform="translate(146.000000, 160.000000)">
                    <polygon id="Fill-1" fill="#FFFFFF" points="6.80590189 11.254005 9.91971321 17.151855 2.34386415 12.441555 0.000316981132 13.066305 7.36061887 20.379555 9.15473208 19.901805 7.14295849 17.903655 3.49450566 14.504805 11.3186566 19.326405 12.5517132 18.997755 9.41676981 12.921405 12.7102038 16.421055 14.723034 18.419205 16.5213736 17.940405 9.1610717 10.627155"></polygon>
                    <path d="M17.7063547,14.16702 L19.8829585,13.58742 L16.0326943,11.14092 L17.7063547,14.16702 Z M21.5957132,14.67837 L18.4491472,15.51627 L19.3673358,17.18262 L17.4612226,17.69082 L13.3415245,9.51342 L15.0046189,9.07137 L25.6234868,15.51732 L23.7152604,16.02552 L21.5957132,14.67837 Z" id="Fill-2" fill="#FFFFFF"></path>
                    <g id="Group-12" stroke-width="1" fill="none" transform="translate(20.075472, 0.429870)">
                        <path d="M8.94499623,11.748975 C8.81714717,11.621925 8.67978868,11.513775 8.53292075,11.422425 C8.38710943,11.333175 8.20748679,11.260725 7.99299623,11.206125 C7.77956226,11.153625 7.52069434,11.114775 7.21533585,11.089575 C6.90997736,11.064375 6.53382642,11.051775 6.09005283,11.051775 C5.58182642,11.049675 5.08627925,11.029725 4.5981283,10.989825 C4.10997736,10.948875 3.64190189,10.873275 3.19390189,10.763025 C2.74484528,10.650675 2.32326038,10.496325 1.93126038,10.298925 C1.53820377,10.102575 1.1821283,9.845325 0.861977358,9.526125 C0.555562264,9.222675 0.35269434,8.922375 0.255486792,8.626275 C0.160392453,8.332275 0.163562264,8.057175 0.270279245,7.805175 C0.376996226,7.551075 0.57669434,7.323225 0.869373585,7.119525 C1.16310943,6.914775 1.5456,6.750975 2.01473208,6.626025 C2.4976,6.497925 2.99209057,6.437025 3.50031698,6.444375 C4.0085434,6.451725 4.50303396,6.519975 4.98378868,6.645975 C5.4645434,6.771975 5.92099623,6.953625 6.34997736,7.188825 C6.77895849,7.425075 7.15933585,7.706475 7.49005283,8.035125 L5.69593962,8.512875 C5.54061887,8.358525 5.36839245,8.224125 5.18031698,8.108625 C4.9901283,7.994175 4.78831698,7.905975 4.57488302,7.844025 C4.36039245,7.781025 4.13744906,7.747425 3.90605283,7.744275 C3.6746566,7.740075 3.43692075,7.770525 3.19495849,7.834575 C2.95933585,7.897575 2.7765434,7.974225 2.64658113,8.063475 C2.51661887,8.153775 2.43420377,8.252475 2.39827925,8.358525 C2.36341132,8.466675 2.36658113,8.579025 2.4130717,8.699775 C2.46061887,8.818425 2.54197736,8.936025 2.66137358,9.054675 C2.90333585,9.294075 3.2530717,9.457875 3.70952453,9.541875 C4.16703396,9.626925 4.74816604,9.663675 5.45609057,9.653175 C6.05518491,9.651075 6.61095849,9.677325 7.12341132,9.731925 C7.63586415,9.786525 8.10816604,9.876825 8.54137358,10.003875 C8.97458113,10.130925 9.37292075,10.295775 9.73533585,10.501575 C10.0988075,10.705275 10.4316377,10.959375 10.734883,11.260725 C11.0592604,11.582025 11.2716377,11.888625 11.3751849,12.179475 C11.4776755,12.470325 11.4787321,12.738075 11.3783547,12.984825 C11.2758642,13.229475 11.0782792,13.451025 10.780317,13.646325 C10.4855245,13.841625 10.0988075,14.003325 9.62122264,14.131425 C9.33276981,14.208075 9.02424151,14.263725 8.69563774,14.297325 C8.36597736,14.331975 8.02786415,14.340375 7.67918491,14.322525 C7.33050566,14.304675 6.9786566,14.261625 6.62363774,14.189175 C6.26967547,14.118825 5.91888302,14.015925 5.57548679,13.881525 C5.23103396,13.749225 4.89820377,13.582275 4.57699623,13.381725 C4.25684528,13.180125 3.95782642,12.942825 3.68205283,12.667725 L5.48144906,12.187875 C5.70439245,12.409425 5.93367547,12.585825 6.17246792,12.717075 C6.41231698,12.848325 6.65322264,12.942825 6.89835472,12.997425 C7.1456,13.054125 7.39495849,13.076175 7.6496,13.063575 C7.90635472,13.049925 8.16310943,13.008975 8.42197736,12.940725 C8.65337358,12.878775 8.83405283,12.804225 8.96295849,12.716025 C9.09186415,12.628875 9.17533585,12.534375 9.21231698,12.429375 C9.24929811,12.326475 9.24401509,12.216225 9.19541132,12.099675 C9.14575094,11.983125 9.06333585,11.866575 8.94499623,11.748975" id="Fill-3" fill="#FFFFFF"></path>
                        <polygon id="Fill-5" fill="#FFFFFF" points="14.3126491 5.027505 11.6457811 5.738355 17.7761962 11.830455 15.9831396 12.309255 9.85166792 6.216105 7.22072453 6.915405 5.99295094 5.695305 13.0848755 3.807405"></polygon>
                        <polygon id="Fill-7" fill="#FFFFFF" points="23.5156679 6.28362 20.0711396 7.20027 22.0417057 9.15957 26.0853283 8.08332 27.3035925 9.29397 21.4669132 10.84902 14.1076679 3.53577 19.9316679 1.98387 21.1604981 3.20397 17.1284981 4.27812 18.8824604 6.02112 22.3280453 5.10342"></polygon>
                        <g id="Group-11" transform="translate(20.075472, 0.000000)">
                            <mask id="mask-8" fill="white">
                                <use xlink:href="#path-7"></use>
                            </mask>
                            <g id="Clip-10"></g>
                            <path d="M6.15186415,4.6389 L7.59835472,4.25355 C7.83397736,4.1895 8.0146566,4.1097 8.13933585,4.0089 C8.2650717,3.91125 8.33797736,3.79785 8.35910943,3.6708 C8.38129811,3.5448 8.35593962,3.40725 8.28197736,3.2592 C8.2090717,3.11115 8.08967547,2.9547 7.92484528,2.78985 C7.57827925,2.44545 7.18733585,2.205 6.75518491,2.06955 C6.32303396,1.9341 5.86552453,1.93095 5.38371321,2.05905 L3.94250566,2.4423 L6.15186415,4.6389 Z M8.80922264,5.47785 L7.37963774,5.859 L10.075034,8.5365 L8.28092075,9.01425 L0.920618868,1.69995 L4.15593962,0.83895 C4.65888302,0.7056 5.1565434,0.63315 5.64997736,0.6216 C6.14552453,0.6111 6.62416604,0.66255 7.08695849,0.7749 C7.54869434,0.8883 7.99141132,1.06155 8.41616604,1.29675 C8.83880755,1.53195 9.23292075,1.8312 9.59744906,2.1924 C9.86793962,2.4612 10.0729208,2.71005 10.2155623,2.9421 C10.3571472,3.17415 10.4437887,3.39045 10.4754868,3.59205 C10.5061283,3.79365 10.488166,3.98265 10.4216,4.15695 C10.3560906,4.33125 10.248317,4.49715 10.0993358,4.6515 L14.9903547,7.13895 L15.0622038,7.20825 L13.1360151,7.7217 L8.80922264,5.47785 Z" id="Fill-9" fill="#FFFFFF" mask="url(#mask-8)"></path>
                        </g>
                    </g>
                </g>
            </g>
            <g id="Page-1" mask="url(#mask-2)">
                <g transform="translate(175.000000, 255.000000)">
                    <g id="Group-3" stroke-width="1" fill="none" transform="translate(0.000000, 20.677607)">
                        <mask id="mask-10" fill="white">
                            <use xlink:href="#path-9"></use>
                        </mask>
                        <g id="Clip-2"></g>
                        <path d="M5.97848642,4.83503571 L7.9745358,6.84932143 L9.51828889,6.43039286 C9.75080741,6.36825 9.92705432,6.29003571 10.0459679,6.19467857 C10.1648815,6.10039286 10.2381407,5.99325 10.2636222,5.87646429 C10.2901654,5.75860714 10.2710543,5.63325 10.2084123,5.50146429 C10.1457704,5.36860714 10.0438444,5.23146429 9.90581975,5.09110714 C9.74656049,4.93146429 9.57986914,4.79325 9.40574568,4.67860714 C9.22949877,4.56289286 9.04688148,4.47396429 8.85364691,4.41075 C8.66147407,4.34860714 8.45974568,4.31539286 8.24952346,4.31217857 C8.03717778,4.30896429 7.8174,4.33789286 7.59019012,4.40003571 L5.97848642,4.83503571 Z M4.9008321,3.74753571 L6.23542469,3.38646429 C6.68984444,3.25575 6.94890617,3.08003571 7.01791852,2.86039286 C7.08374568,2.64075 6.9722642,2.38360714 6.68028889,2.09003571 C6.34478272,1.75146429 5.98804198,1.54039286 5.61006667,1.45360714 C5.23421481,1.36789286 4.79678272,1.39146429 4.2988321,1.52539286 L3.03643704,1.86610714 L4.9008321,3.74753571 Z M7.39589383,8.57110714 L-0.00010617284,1.10860714 L3.0651037,0.280392857 C3.5736716,0.142178571 4.06843704,0.06075 4.55152346,0.0350357143 C5.03248642,0.00825 5.49646173,0.0414642857 5.94238765,0.134678571 C6.38937531,0.228964286 6.81194321,0.384321429 7.21221481,0.601821429 C7.61248642,0.81825 7.98621481,1.10110714 8.33021481,1.45039286 C8.50009136,1.61967857 8.63705432,1.79110714 8.74322716,1.96146429 C8.84833827,2.13289286 8.91841235,2.30003571 8.95238765,2.46396429 C8.98530123,2.62789286 8.97786914,2.78753571 8.93115309,2.93967857 C8.88549877,3.09396429 8.78994321,3.23539286 8.64554815,3.36717857 C8.95663457,3.35110714 9.2571037,3.37575 9.54907901,3.43682143 C9.84211605,3.49896429 10.1192272,3.58682143 10.3825358,3.70146429 C10.6479679,3.81717857 10.8911037,3.95325 11.1172519,4.11182143 C11.3423383,4.26932143 11.5440667,4.43860714 11.7234988,4.62075 C12.4412272,5.34503571 12.7098444,5.96539286 12.5293506,6.48182143 C12.3477951,7.00039286 11.7521654,7.39360714 10.7424617,7.66789286 L7.39589383,8.57110714 Z" id="Fill-1" fill="#FFFFFF" mask="url(#mask-10)"></path>
                    </g>
                    <path d="M14.7573877,23.7296786 L16.9445481,23.13825 L13.0766716,20.6418214 L14.7573877,23.7296786 Z M18.6656099,24.2514643 L15.5048444,25.1075357 L16.4274864,26.8068214 L14.5110667,27.3253929 L10.3724494,18.9821786 L12.0425481,18.5300357 L22.7129185,25.1075357 L20.795437,25.6271786 L18.6656099,24.2514643 Z" id="Fill-4" fill="#FFFFFF"></path>
                    <path d="M27.8092148,20.5772143 C28.1532148,20.9661429 28.3984741,21.3411429 28.5439309,21.7054286 C28.6915111,22.0686429 28.7286716,22.4029286 28.6575358,22.7093571 C28.5853383,23.0168571 28.4037827,23.2932857 28.1075605,23.5365 C27.8124,23.7775714 27.394079,23.9725714 26.8536593,24.1193571 C26.2920049,24.2704286 25.7069926,24.3229286 25.095437,24.279 C24.4849432,24.234 23.8691407,24.0968571 23.2501531,23.8707857 C22.6322272,23.6425714 22.0206716,23.3307857 21.4154864,22.9332857 C20.8103012,22.5357857 20.2348444,22.0611429 19.6912395,21.5125714 L19.2039062,21.0197143 C18.6581778,20.469 18.2515358,19.9493571 17.9829185,19.4586429 C17.715363,18.9679286 17.5847704,18.5243571 17.590079,18.1279286 C17.5975111,17.7315 17.7429679,17.3897143 18.0243259,17.1015 C18.3067457,16.8122143 18.7250667,16.5925714 19.2782272,16.4436429 C19.8228938,16.2957857 20.369684,16.2315 20.9196593,16.2497143 C21.4675111,16.269 22.0047457,16.3557857 22.5281778,16.5100714 C23.0537333,16.6654286 23.5569926,16.8818571 24.0411407,17.1604286 C24.5252889,17.4379286 24.9775852,17.7615 25.3980296,18.129 L23.5952148,18.6165 C23.3552642,18.4011429 23.1153136,18.2157857 22.8764247,18.0636429 C22.6364741,17.9115 22.3922765,17.7957857 22.1448938,17.7143571 C21.8985728,17.6350714 21.6405728,17.5932857 21.3730173,17.5900714 C21.1065235,17.5868571 20.8241037,17.6243571 20.5278815,17.7036429 C19.9173877,17.8697143 19.6519556,18.1815 19.7273383,18.639 C19.8037827,19.0975714 20.2337827,19.7222143 21.0194617,20.5150714 L21.5174123,21.0186429 C21.9006963,21.4032857 22.2680543,21.7332857 22.6226716,22.0065 C22.9762272,22.2786429 23.3202272,22.4929286 23.6557333,22.6493571 C23.9912395,22.8057857 24.3203753,22.9022143 24.6442025,22.9386429 C24.9659062,22.974 25.2876099,22.9482857 25.6082519,22.8625714 C25.8917333,22.7854286 26.1104494,22.6922143 26.2633383,22.5807857 C26.4151654,22.4715 26.5043506,22.3407857 26.5330173,22.1929286 C26.561684,22.044 26.5308938,21.8768571 26.4417086,21.6882857 C26.3504,21.4997143 26.2060049,21.2929286 26.0064,21.0647143 L27.8092148,20.5772143 Z" id="Fill-6" fill="#FFFFFF"></path>
                    <polygon id="Fill-8" fill="#FFFFFF" points="31.2297852 19.0098214 31.1459086 20.1230357 33.2587481 22.2551786 31.4559333 22.7426786 24.0609951 15.28125 25.8627481 14.7926786 29.2167481 18.17625 29.0893407 17.0330357 28.8865506 13.97625 31.1034395 13.37625 31.2828716 17.5323214 38.5896864 20.8151786 36.4439333 21.3958929"></polygon>
                    <path d="M45.069521,17.86725 C45.069521,18.0001071 45.0408543,18.1533214 44.9803358,18.3236786 C44.920879,18.4929643 44.8062123,18.6665357 44.6363358,18.8443929 C44.4685827,19.02225 44.232879,19.1958214 43.9324099,19.36725 C43.630879,19.5376071 43.240163,19.6876071 42.7592,19.81725 C42.1943605,19.9704643 41.5987309,20.0304643 40.9754963,19.99725 C40.3522617,19.9651071 39.7194716,19.8386786 39.0824346,19.62225 C38.4464593,19.40475 37.8147309,19.0961786 37.1883111,18.6976071 C36.5629531,18.3001071 35.9641383,17.8115357 35.3918667,17.2329643 L34.9544346,16.7926071 C34.382163,16.2161786 33.9606568,15.6783214 33.6888543,15.18225 C33.4170519,14.6851071 33.2885827,14.2404643 33.3034469,13.84725 C33.3172494,13.4540357 33.4712,13.1143929 33.764237,12.8326071 C34.0583358,12.5486786 34.4809037,12.33225 35.0340642,12.1833214 C35.6020889,12.0290357 36.1552494,11.95725 36.6892988,11.9658214 C37.2233481,11.9754643 37.7393481,12.0515357 38.2351753,12.1951071 C38.728879,12.3386786 39.2055951,12.5411786 39.6632,12.8026071 C40.1208049,13.0651071 40.5539901,13.3715357 40.9595704,13.71975 L39.2055951,14.1943929 C38.9836938,14.0154643 38.7596691,13.86225 38.5324593,13.7304643 C38.3052494,13.5986786 38.0727309,13.4968929 37.833842,13.4251071 C37.5938914,13.35225 37.3496938,13.3136786 37.0970025,13.30725 C36.8453728,13.3029643 36.5863111,13.3361786 36.3176938,13.4101071 C35.7008296,13.5761786 35.4290272,13.9018929 35.5022864,14.38725 C35.5766074,14.8704643 36.0012988,15.50475 36.7763605,16.2868929 L37.2233481,16.7379643 C37.9994716,17.5211786 38.7596691,18.0654643 39.5039407,18.3708214 C40.2492741,18.67725 40.9574469,18.73725 41.6316444,18.5561786 C41.8471753,18.49725 42.0234222,18.4340357 42.1603852,18.3676071 C42.2973481,18.3001071 42.4045827,18.2336786 42.4820889,18.1661786 C42.5627802,18.09975 42.6179901,18.0343929 42.6519654,17.97225 C42.684879,17.9079643 42.7050519,17.8479643 42.712484,17.7954643 L41.4384099,16.5086786 L39.7980395,16.95225 L38.6757926,15.81975 L42.1189778,14.88975 L45.069521,17.86725 Z" id="Fill-10" fill="#FFFFFF"></path>
                    <path d="M45.3256099,13.9497857 L46.7801778,13.5565714 C47.0169432,13.4922857 47.197437,13.4097857 47.322721,13.308 C47.4490667,13.2083571 47.5223259,13.0915714 47.5435605,12.9619286 C47.5658568,12.8344286 47.5403753,12.6940714 47.4660543,12.5419286 C47.3917333,12.3908571 47.2728198,12.2312143 47.1061284,12.0640714 C46.7578815,11.7126429 46.365042,11.4672857 45.9318568,11.3290714 C45.4976099,11.1897857 45.0378815,11.1876429 44.5537333,11.3183571 L43.1055358,11.7094286 L45.3256099,13.9497857 Z M47.9958568,14.8069286 L46.5593383,15.1947857 L49.2667457,17.928 L47.4649926,18.4155 L40.0689926,10.9519286 L43.3200049,10.0733571 C43.8253877,9.93621429 44.3254617,9.86335714 44.8223506,9.85157143 C45.3203012,9.84085714 45.8002025,9.89228571 46.2641778,10.0069286 C46.7281531,10.1226429 47.174079,10.3005 47.6008938,10.5405 C48.0255852,10.7794286 48.4216099,11.0847857 48.7879062,11.4533571 C49.0597086,11.7276429 49.265684,11.9826429 49.4079556,12.2194286 C49.5512889,12.4551429 49.6383506,12.6769286 49.6691407,12.8826429 C49.7009926,13.0883571 49.6829432,13.2801429 49.6160543,13.4590714 C49.5491654,13.6369286 49.4419309,13.8051429 49.2922272,13.9626429 L54.2080296,16.5008571 L54.2791654,16.5715714 L52.3436346,17.0955 L47.9958568,14.8069286 Z" id="Fill-12" fill="#FFFFFF"></path>
                    <path d="M56.8128741,10.9405714 C56.0378123,10.1584286 55.2839852,9.60771429 54.5524543,9.29164286 C53.8219852,8.97342857 53.1509728,8.89628571 52.5426025,9.06128571 C51.9331704,9.22414286 51.6656148,9.55521429 51.7409975,10.0512857 C51.8142568,10.5462857 52.2400099,11.1859286 53.0161333,11.9680714 L53.3505778,12.3066429 C53.7359852,12.6955714 54.1213926,13.0287857 54.5025531,13.3041429 C54.885837,13.5795 55.2595654,13.7980714 55.6226765,13.9555714 C55.9857877,14.1162857 56.3382815,14.217 56.6780346,14.2577143 C57.0167259,14.2973571 57.3384296,14.2759286 57.6431457,14.1934286 C58.251516,14.0295 58.5158864,13.6973571 58.4341333,13.2002143 C58.3523802,12.7030714 57.9245037,12.0623571 57.1483802,11.2791429 L56.8128741,10.9405714 Z M58.9756148,10.7852143 C59.5393926,11.3562857 59.9577136,11.8930714 60.2263309,12.3934286 C60.4949481,12.8948571 60.6202321,13.347 60.6053679,13.7498571 C60.5915654,14.1527143 60.4397383,14.4998571 60.1498864,14.7934286 C59.8610963,15.0859286 59.4427753,15.3066429 58.8938617,15.4555714 C58.3449481,15.6034286 57.7578123,15.6537857 57.133516,15.6087857 C56.5092198,15.5627143 55.8753679,15.4266429 55.234084,15.2027143 C54.5917383,14.9777143 53.955763,14.6637857 53.3219111,14.2609286 C52.6880593,13.8580714 52.0892444,13.3705714 51.5244049,12.8005714 L51.1984543,12.4727143 C50.6368,11.9048571 50.2206025,11.3691429 49.9530469,10.8655714 C49.6854914,10.362 49.558084,9.90664286 49.5718864,9.4995 C49.5846272,9.09235714 49.7364543,8.74307143 50.0252444,8.45057143 C50.3140346,8.157 50.7323556,7.93735714 51.2823309,7.7895 C51.8312444,7.64057143 52.4162568,7.58914286 53.0416148,7.63521429 C53.6669728,7.68128571 54.3008247,7.81842857 54.9431704,8.04664286 C55.5876395,8.277 56.2246765,8.59414286 56.8585284,8.99914286 C57.4902568,9.40307143 58.0880099,9.89057143 58.6496642,10.4573571 L58.9756148,10.7852143 Z" id="Fill-14" fill="#FFFFFF"></path>
                    <path d="M63.0422469,4.74010714 L67.9240741,9.66653571 C68.3498272,10.09725 68.6407407,10.4990357 68.8010617,10.8751071 C68.9592593,11.2501071 68.9996049,11.58975 68.9231605,11.8908214 C68.8477778,12.1929643 68.6609136,12.4565357 68.3615062,12.6793929 C68.0631605,12.9033214 67.670321,13.0811786 67.1861728,13.2129643 C66.6977778,13.34475 66.1913333,13.4101071 65.6700247,13.4079643 C65.1465926,13.4068929 64.6274074,13.3340357 64.1103457,13.1926071 C63.5943457,13.0501071 63.0900247,12.8379643 62.596321,12.5518929 C62.1026173,12.2668929 61.6450123,11.9101071 61.2171358,11.4793929 L56.3363704,6.55296429 L58.1381235,6.06653571 L63.0199506,10.9929643 C63.5040988,11.4804643 63.9935556,11.8008214 64.4893827,11.94975 C64.9862716,12.0986786 65.4767901,12.1083214 65.962,11.9776071 C66.4503951,11.84475 66.7190123,11.6315357 66.7678519,11.3336786 C66.8166914,11.0368929 66.599037,10.6436786 66.1148889,10.1561786 L61.2330617,5.22975 L63.0422469,4.74010714 Z" id="Fill-16" fill="#FFFFFF"></path>
                    <polygon id="Fill-18" fill="#FFFFFF" points="79.030284 9.87964286 77.2274691 10.3671429 68.8525556 6.40607143 73.7173951 11.3164286 71.915642 11.8028571 64.5207037 4.34035714 66.3224568 3.85285714 74.7154198 7.82357143 69.8378395 2.9025 71.634284 2.41714286"></polygon>
                    <g id="Group-22" stroke-width="1" fill="none" transform="translate(73.197531, 0.320464)">
                        <mask id="mask-12" fill="white">
                            <use xlink:href="#path-11"></use>
                        </mask>
                        <g id="Clip-21"></g>
                        <path d="M3.04783951,2.4285 L7.98487654,7.40957143 L8.85655556,7.17492857 C9.57003704,6.98207143 9.91403704,6.63492857 9.88855556,6.13242857 C9.8641358,5.631 9.48297531,5.00742857 8.74295062,4.26171429 L8.39788889,3.9135 C7.64512346,3.15385714 6.89235802,2.62885714 6.13534568,2.33742857 C5.37939506,2.04707143 4.64680247,1.99671429 3.9375679,2.18742857 L3.04783951,2.4285 Z M7.40623457,9.1335 L0.0123580247,1.66992857 L2.70383951,0.942428571 C3.29203704,0.783857143 3.91739506,0.722785714 4.57779012,0.762428571 C5.24137037,0.803142857 5.90176543,0.932785714 6.56322222,1.15028571 C7.22361728,1.36778571 7.86808642,1.66885714 8.49769136,2.05242857 C9.12835802,2.43814286 9.70593827,2.89671429 10.2357407,3.43028571 L10.5701852,3.76778571 C11.0978642,4.30028571 11.4811481,4.81135714 11.7189753,5.29992857 C11.9568025,5.7885 12.052358,6.23635714 12.0067037,6.64457143 C11.9631728,7.05385714 11.7794938,7.40957143 11.4567284,7.71492857 C11.1318395,8.01814286 10.6742346,8.25064286 10.0807284,8.41028571 L7.40623457,9.1335 Z" id="Fill-20" fill="#FFFFFF" mask="url(#mask-12)"></path>
                    </g>
                </g>
            </g>
            <g id="Group-10" mask="url(#mask-2)">
                <g transform="translate(102.000000, 105.000000)">
                    <path d="M3.5,29.4090909 L3.5,4.59090909" id="Line" stroke="#F44336" stroke-width="1" fill="none" stroke-linecap="square"></path>
                    <polygon id="Triangle" stroke="none" fill="#F44336" fill-rule="evenodd" points="3.5 0 7 7 0 7"></polygon>
                </g>
            </g>
            <g id="Group-13" mask="url(#mask-2)">
                <g transform="translate(35.000000, -34.000000)">
                    <g id="Group-8" filter="url(#filter-13)" stroke-width="1" fill="none" transform="translate(0.000000, 42.000000)">
                        <g id="Group-7">
                            <polygon id="Fill-10" fill-opacity="0.9" fill="#2C2C2C" points="0.74729655 49.5750206 92.1183071 24.9540591 141.630039 74.7423558 50.2566026 99.3633173"></polygon>
                            <polygon id="Fill-11" fill="#5B5B5B" points="92.1185496 24.954303 183.48956 0.333341444 233.001292 50.1216381 141.627856 74.7425997"></polygon>
                            <g id="Page-1" transform="translate(49.000000, 53.153846)">
                                <g id="Group-3" transform="translate(0.000000, 8.477741)">
                                    <mask id="mask-15" fill="white">
                                        <use xlink:href="#path-14"></use>
                                    </mask>
                                    <g id="Clip-2"></g>
                                    <path d="M3.05109333,1.84362353 L8.01109333,6.76715294 L8.88682667,6.53421176 C9.60362667,6.34362353 9.94922667,6.00056471 9.92256,5.50397647 C9.89802667,5.00844706 9.51509333,4.39221176 8.77269333,3.65527059 L8.42602667,3.31115294 C7.66976,2.56150588 6.91242667,2.04162353 6.15189333,1.75362353 C5.39349333,1.46668235 4.65749333,1.41691765 3.94496,1.60538824 L3.05109333,1.84362353 Z M7.42976,8.4708 L0.000426666667,1.09503529 L2.70549333,0.375035294 C3.29642667,0.218329412 3.92469333,0.159035294 4.58816,0.197152941 C5.25376,0.237388235 5.91829333,0.365505882 6.58176,0.580447059 C7.24629333,0.796447059 7.89376,1.09291765 8.52629333,1.47303529 C9.15882667,1.85315294 9.74016,2.30632941 10.27136,2.83362353 L10.6084267,3.16715294 C11.13856,3.69444706 11.52256,4.19950588 11.76256,4.68127059 C12.0004267,5.16409412 12.0974933,5.60774118 12.0516267,6.01115294 C12.0078933,6.41456471 11.82336,6.76609412 11.4980267,7.06785882 C11.1726933,7.36750588 10.71296,7.59727059 10.1166933,7.75503529 L7.42976,8.4708 Z" id="Fill-1" fill="#FFFFFF" mask="url(#mask-15)"></path>
                                </g>
                                <polygon id="Fill-4" fill="#FFFFFF" points="17.5333333 10.2076471 14.056 11.132 16.0453333 13.1077647 20.1274667 12.0224706 21.3584 13.2432941 15.4661333 14.8114118 8.03573333 7.43564706 13.9152 5.87176471 15.1557333 7.10211765 11.0864 8.18423529 12.8570667 9.94188235 16.3344 9.01752941"></polygon>
                                <polygon id="Fill-6" fill="#FFFFFF" points="22.96768 5.02417647 20.2754133 5.741 26.4642133 11.8842941 24.65408 12.3671176 18.4631467 6.22276471 15.8071467 6.929 14.56768 5.69864706 21.7282133 3.79382353"></polygon>
                                <path d="M28.97088,7.73116471 L31.1682133,7.14669412 L27.2823467,4.67963529 L28.97088,7.73116471 Z M32.89728,8.24681176 L29.7218133,9.09175294 L30.6487467,10.7721059 L28.7234133,11.2835176 L24.5655467,3.03845882 L26.2434133,2.59269412 L36.9634133,9.09281176 L35.0370133,9.60528235 L32.89728,8.24681176 Z" id="Fill-8" fill="#FFFFFF"></path>
                                <polygon id="Fill-10" fill="#FFFFFF" points="39.7104 8.36190588 37.8992 8.84367059 30.4698667 1.46790588 32.2810667 0.9872"></polygon>
                                <g id="Group-14" transform="translate(33.066667, 0.007153)">
                                    <mask id="mask-17" fill="white">
                                        <use xlink:href="#path-16"></use>
                                    </mask>
                                    <g id="Clip-13"></g>
                                    <polygon id="Fill-12" fill="#FFFFFF" mask="url(#mask-17)" points="8.90314667 6.20608235 12.7474133 5.1822 13.9794133 6.40408235 8.32181333 7.90761176 0.891413333 0.533964706 2.70368 0.0522"></polygon>
                                </g>
                            </g>
                        </g>
                    </g>
                    <polygon id="Rectangle-6" fill="url(#linearGradient-18)" transform="translate(176.897321, 73.308634) rotate(-134.000000) translate(-176.897321, -73.308634) " points="114.523025 33.1790094 235.963025 33.1790094 239.271618 64.1773524 191.700914 113.438259 114.523025 106.159779"></polygon>
                </g>
            </g>
        </g>
    </g>
</svg>