<?xml version="1.0" encoding="UTF-8" standalone="no"?>
<!DOCTYPE svg PUBLIC "-//W3C//DTD SVG 1.1//EN"
 "http://www.w3.org/Graphics/SVG/1.1/DTD/svg11.dtd">
<!-- Generated by graphviz version 2.40.1 (20161225.0304)
 -->
<!-- Title: dependencies Pages: 1 -->
<svg width="794pt" height="284pt"
 viewBox="0.00 0.00 794.00 284.00" xmlns="http://www.w3.org/2000/svg" xmlns:xlink="http://www.w3.org/1999/xlink">
<g id="graph0" class="graph" transform="scale(1 1) rotate(0) translate(4 280)">
<title>dependencies</title>
<polygon fill="#ffffff" stroke="transparent" points="-4,4 -4,-280 790,-280 790,4 -4,4"/>
<text text-anchor="start" x="372.0091" y="-42.4" font-family="sans-serif" font-weight="bold" font-size="14.00" fill="#000000">Legend</text>
<polygon fill="#ffffb3" stroke="transparent" points="159,-10 159,-30 179,-30 179,-10 159,-10"/>
<text text-anchor="start" x="182.629" y="-15.4" font-family="sans-serif" font-size="14.00" fill="#000000"> &#160;Declarations</text>
<polygon fill="#8dd3c7" stroke="transparent" points="272,-10 272,-30 292,-30 292,-10 272,-10"/>
<text text-anchor="start" x="295.7251" y="-15.4" font-family="sans-serif" font-size="14.00" fill="#000000"> &#160;Module</text>
<polygon fill="#80b1d3" stroke="transparent" points="358,-10 358,-30 378,-30 378,-10 358,-10"/>
<text text-anchor="start" x="381.7812" y="-15.4" font-family="sans-serif" font-size="14.00" fill="#000000"> &#160;Bootstrap</text>
<polygon fill="#fdb462" stroke="transparent" points="455,-10 455,-30 475,-30 475,-10 455,-10"/>
<text text-anchor="start" x="478.6732" y="-15.4" font-family="sans-serif" font-size="14.00" fill="#000000"> &#160;Providers</text>
<polygon fill="#fb8072" stroke="transparent" points="551,-10 551,-30 571,-30 571,-10 551,-10"/>
<text text-anchor="start" x="574.7258" y="-15.4" font-family="sans-serif" font-size="14.00" fill="#000000"> &#160;Exports</text>
<g id="clust1" class="cluster">
<title>cluster_ProfileModule</title>
<polygon fill="none" stroke="#000000" stroke-dasharray="1,5" points="8,-70 8,-268 778,-268 778,-70 8,-70"/>
</g>
<g id="clust2" class="cluster">
<title>cluster_ProfileModule_declarations</title>
<polygon fill="none" stroke="#000000" points="340,-78 340,-130 770,-130 770,-78 340,-78"/>
</g>
<g id="clust5" class="cluster">
<title>cluster_ProfileModule_imports</title>
<polygon fill="none" stroke="#000000" points="16,-78 16,-130 332,-130 332,-78 16,-78"/>
</g>
<g id="clust6" class="cluster">
<title>cluster_ProfileModule_exports</title>
<polygon fill="none" stroke="#000000" points="128,-208 128,-260 565,-260 565,-208 128,-208"/>
</g>
<!-- ResumeContainerComponent -->
<g id="node1" class="node">
<title>ResumeContainerComponent</title>
<polygon fill="#ffffb3" stroke="#000000" points="761.6414,-122 580.3586,-122 580.3586,-86 761.6414,-86 761.6414,-122"/>
<text text-anchor="middle" x="671" y="-99.8" font-family="Times,serif" font-size="14.00" fill="#000000">ResumeContainerComponent</text>
</g>
<!-- ProfileModule -->
<g id="node3" class="node">
<title>ProfileModule</title>
<polygon fill="#8dd3c7" stroke="#000000" points="402.65,-187 399.65,-191 378.65,-191 375.65,-187 305.35,-187 305.35,-151 402.65,-151 402.65,-187"/>
<text text-anchor="middle" x="354" y="-164.8" font-family="Times,serif" font-size="14.00" fill="#000000">ProfileModule</text>
</g>
<!-- ResumeContainerComponent&#45;&gt;ProfileModule -->
<g id="edge1" class="edge">
<title>ResumeContainerComponent&#45;&gt;ProfileModule</title>
<path fill="none" stroke="#000000" d="M671,-122.1061C671,-141.3391 671,-169 671,-169 671,-169 412.8365,-169 412.8365,-169"/>
<polygon fill="#000000" stroke="#000000" points="412.8366,-165.5001 402.8365,-169 412.8365,-172.5001 412.8366,-165.5001"/>
</g>
<!-- MasterProfileContainerComponent -->
<g id="node2" class="node">
<title>MasterProfileContainerComponent</title>
<polygon fill="#ffffb3" stroke="#000000" points="561.5098,-122 348.4902,-122 348.4902,-86 561.5098,-86 561.5098,-122"/>
<text text-anchor="middle" x="455" y="-99.8" font-family="Times,serif" font-size="14.00" fill="#000000">MasterProfileContainerComponent</text>
</g>
<!-- MasterProfileContainerComponent&#45;&gt;ProfileModule -->
<g id="edge2" class="edge">
<title>MasterProfileContainerComponent&#45;&gt;ProfileModule</title>
<path fill="none" stroke="#000000" d="M375.5351,-122.1061C375.5351,-122.1061 375.5351,-140.991 375.5351,-140.991"/>
<polygon fill="#000000" stroke="#000000" points="372.0351,-140.9909 375.5351,-150.991 379.0351,-140.991 372.0351,-140.9909"/>
</g>
<!-- ResumeContainerComponent  -->
<g id="node6" class="node">
<title>ResumeContainerComponent </title>
<polygon fill="#fb8072" stroke="#000000" points="556.6411,-252 371.3589,-252 371.3589,-216 556.6411,-216 556.6411,-252"/>
<text text-anchor="middle" x="464" y="-229.8" font-family="Times,serif" font-size="14.00" fill="#000000">ResumeContainerComponent </text>
</g>
<!-- ProfileModule&#45;&gt;ResumeContainerComponent  -->
<g id="edge5" class="edge">
<title>ProfileModule&#45;&gt;ResumeContainerComponent </title>
<path fill="none" stroke="#000000" stroke-dasharray="5,2" d="M387.1271,-187.1061C387.1271,-187.1061 387.1271,-205.991 387.1271,-205.991"/>
<polygon fill="#000000" stroke="#000000" points="383.6272,-205.9909 387.1271,-215.991 390.6272,-205.991 383.6272,-205.9909"/>
</g>
<!-- MasterProfileContainerComponent  -->
<g id="node7" class="node">
<title>MasterProfileContainerComponent </title>
<polygon fill="#fb8072" stroke="#000000" points="353.5092,-252 136.4908,-252 136.4908,-216 353.5092,-216 353.5092,-252"/>
<text text-anchor="middle" x="245" y="-229.8" font-family="Times,serif" font-size="14.00" fill="#000000">MasterProfileContainerComponent </text>
</g>
<!-- ProfileModule&#45;&gt;MasterProfileContainerComponent  -->
<g id="edge6" class="edge">
<title>ProfileModule&#45;&gt;MasterProfileContainerComponent </title>
<path fill="none" stroke="#000000" stroke-dasharray="5,2" d="M329.34,-187.1061C329.34,-187.1061 329.34,-205.991 329.34,-205.991"/>
<polygon fill="#000000" stroke="#000000" points="325.84,-205.9909 329.34,-215.991 332.84,-205.991 325.84,-205.9909"/>
</g>
<!-- profileRoutes.routes -->
<g id="node4" class="node">
<title>profileRoutes.routes</title>
<polygon fill="#8dd3c7" stroke="#000000" points="323.9138,-122 320.9138,-126 299.9138,-126 296.9138,-122 194.0862,-122 194.0862,-86 323.9138,-86 323.9138,-122"/>
<text text-anchor="middle" x="259" y="-99.8" font-family="Times,serif" font-size="14.00" fill="#000000">profileRoutes.routes</text>
</g>
<!-- profileRoutes.routes&#45;&gt;ProfileModule -->
<g id="edge3" class="edge">
<title>profileRoutes.routes&#45;&gt;ProfileModule</title>
<path fill="none" stroke="#000000" d="M314.5661,-122.1061C314.5661,-122.1061 314.5661,-140.991 314.5661,-140.991"/>
<polygon fill="#000000" stroke="#000000" points="311.0662,-140.9909 314.5661,-150.991 318.0662,-140.991 311.0662,-140.9909"/>
</g>
<!-- MainNavigationModule -->
<g id="node5" class="node">
<title>MainNavigationModule</title>
<polygon fill="#8dd3c7" stroke="#000000" points="175.8075,-122 172.8075,-126 151.8075,-126 148.8075,-122 24.1925,-122 24.1925,-86 175.8075,-86 175.8075,-122"/>
<text text-anchor="middle" x="100" y="-99.8" font-family="Times,serif" font-size="14.00" fill="#000000">MainNavigationModule</text>
</g>
<!-- MainNavigationModule&#45;&gt;ProfileModule -->
<g id="edge4" class="edge">
<title>MainNavigationModule&#45;&gt;ProfileModule</title>
<path fill="none" stroke="#000000" d="M156.0745,-122.1061C156.0745,-141.3391 156.0745,-169 156.0745,-169 156.0745,-169 295.3285,-169 295.3285,-169"/>
<polygon fill="#000000" stroke="#000000" points="295.3285,-172.5001 305.3285,-169 295.3284,-165.5001 295.3285,-172.5001"/>
</g>
</g>
</svg>
