<?xml version="1.0" encoding="UTF-8" standalone="no"?>
<!DOCTYPE svg PUBLIC "-//W3C//DTD SVG 1.1//EN"
 "http://www.w3.org/Graphics/SVG/1.1/DTD/svg11.dtd">
<!-- Generated by graphviz version 2.40.1 (20161225.0304)
 -->
<!-- Title: dependencies Pages: 1 -->
<svg width="964pt" height="211pt"
 viewBox="0.00 0.00 964.00 211.00" xmlns="http://www.w3.org/2000/svg" xmlns:xlink="http://www.w3.org/1999/xlink">
<g id="graph0" class="graph" transform="scale(1 1) rotate(0) translate(4 207)">
<title>dependencies</title>
<polygon fill="#ffffff" stroke="transparent" points="-4,4 -4,-207 960,-207 960,4 -4,4"/>
<text text-anchor="start" x="457.0091" y="-42.4" font-family="sans-serif" font-weight="bold" font-size="14.00" fill="#000000">Legend</text>
<polygon fill="#ffffb3" stroke="transparent" points="244,-10 244,-30 264,-30 264,-10 244,-10"/>
<text text-anchor="start" x="267.629" y="-15.4" font-family="sans-serif" font-size="14.00" fill="#000000"> &#160;Declarations</text>
<polygon fill="#8dd3c7" stroke="transparent" points="357,-10 357,-30 377,-30 377,-10 357,-10"/>
<text text-anchor="start" x="380.7251" y="-15.4" font-family="sans-serif" font-size="14.00" fill="#000000"> &#160;Module</text>
<polygon fill="#80b1d3" stroke="transparent" points="443,-10 443,-30 463,-30 463,-10 443,-10"/>
<text text-anchor="start" x="466.7812" y="-15.4" font-family="sans-serif" font-size="14.00" fill="#000000"> &#160;Bootstrap</text>
<polygon fill="#fdb462" stroke="transparent" points="540,-10 540,-30 560,-30 560,-10 540,-10"/>
<text text-anchor="start" x="563.6732" y="-15.4" font-family="sans-serif" font-size="14.00" fill="#000000"> &#160;Providers</text>
<polygon fill="#fb8072" stroke="transparent" points="636,-10 636,-30 656,-30 656,-10 636,-10"/>
<text text-anchor="start" x="659.7258" y="-15.4" font-family="sans-serif" font-size="14.00" fill="#000000"> &#160;Exports</text>
<g id="clust1" class="cluster">
<title>cluster_GxeRouterModule</title>
<polygon fill="none" stroke="#000000" stroke-dasharray="1,5" points="8,-70 8,-195 948,-195 948,-70 8,-70"/>
</g>
<g id="clust3" class="cluster">
<title>cluster_GxeRouterModule_imports</title>
<polygon fill="none" stroke="#000000" points="16,-78 16,-130 940,-130 940,-78 16,-78"/>
</g>
<!-- GxeIntroModule -->
<g id="node1" class="node">
<title>GxeIntroModule</title>
<polygon fill="#8dd3c7" stroke="#000000" points="932.0828,-122 929.0828,-126 908.0828,-126 905.0828,-122 821.9172,-122 821.9172,-86 932.0828,-86 932.0828,-122"/>
<text text-anchor="middle" x="877" y="-99.8" font-family="Times,serif" font-size="14.00" fill="#000000">GxeIntroModule</text>
</g>
<!-- GxeRouterModule -->
<g id="node8" class="node">
<title>GxeRouterModule</title>
<polygon fill="#8dd3c7" stroke="#000000" points="474.4734,-187 471.4734,-191 450.4734,-191 447.4734,-187 353.5266,-187 353.5266,-151 474.4734,-151 474.4734,-187"/>
<text text-anchor="middle" x="414" y="-164.8" font-family="Times,serif" font-size="14.00" fill="#000000">GxeRouterModule</text>
</g>
<!-- GxeIntroModule&#45;&gt;GxeRouterModule -->
<g id="edge1" class="edge">
<title>GxeIntroModule&#45;&gt;GxeRouterModule</title>
<path fill="none" stroke="#000000" d="M877,-122.2921C877,-144.2057 877,-178 877,-178 877,-178 484.5292,-178 484.5292,-178"/>
<polygon fill="#000000" stroke="#000000" points="484.5292,-174.5001 474.5292,-178 484.5291,-181.5001 484.5292,-174.5001"/>
</g>
<!-- LoginRouteModule -->
<g id="node2" class="node">
<title>LoginRouteModule</title>
<polygon fill="#8dd3c7" stroke="#000000" points="804.4356,-122 801.4356,-126 780.4356,-126 777.4356,-122 677.5644,-122 677.5644,-86 804.4356,-86 804.4356,-122"/>
<text text-anchor="middle" x="741" y="-99.8" font-family="Times,serif" font-size="14.00" fill="#000000">LoginRouteModule</text>
</g>
<!-- LoginRouteModule&#45;&gt;GxeRouterModule -->
<g id="edge2" class="edge">
<title>LoginRouteModule&#45;&gt;GxeRouterModule</title>
<path fill="none" stroke="#000000" d="M741,-122.1061C741,-141.3391 741,-169 741,-169 741,-169 484.7398,-169 484.7398,-169"/>
<polygon fill="#000000" stroke="#000000" points="484.7399,-165.5001 474.7398,-169 484.7398,-172.5001 484.7399,-165.5001"/>
</g>
<!-- GxeDocumentationModule -->
<g id="node3" class="node">
<title>GxeDocumentationModule</title>
<polygon fill="#8dd3c7" stroke="#000000" points="659.6839,-122 656.6839,-126 635.6839,-126 632.6839,-122 490.3161,-122 490.3161,-86 659.6839,-86 659.6839,-122"/>
<text text-anchor="middle" x="575" y="-99.8" font-family="Times,serif" font-size="14.00" fill="#000000">GxeDocumentationModule</text>
</g>
<!-- GxeDocumentationModule&#45;&gt;GxeRouterModule -->
<g id="edge3" class="edge">
<title>GxeDocumentationModule&#45;&gt;GxeRouterModule</title>
<path fill="none" stroke="#000000" d="M575,-122.027C575,-138.3976 575,-160 575,-160 575,-160 484.8672,-160 484.8672,-160"/>
<polygon fill="#000000" stroke="#000000" points="484.8672,-156.5001 474.8672,-160 484.8672,-163.5001 484.8672,-156.5001"/>
</g>
<!-- GxeDemoModule -->
<g id="node4" class="node">
<title>GxeDemoModule</title>
<polygon fill="#8dd3c7" stroke="#000000" points="472.5828,-122 469.5828,-126 448.5828,-126 445.5828,-122 355.4172,-122 355.4172,-86 472.5828,-86 472.5828,-122"/>
<text text-anchor="middle" x="414" y="-99.8" font-family="Times,serif" font-size="14.00" fill="#000000">GxeDemoModule</text>
</g>
<!-- GxeDemoModule&#45;&gt;GxeRouterModule -->
<g id="edge4" class="edge">
<title>GxeDemoModule&#45;&gt;GxeRouterModule</title>
<path fill="none" stroke="#000000" d="M414,-122.1061C414,-122.1061 414,-140.991 414,-140.991"/>
<polygon fill="#000000" stroke="#000000" points="410.5001,-140.9909 414,-150.991 417.5001,-140.991 410.5001,-140.9909"/>
</g>
<!-- GxeProcessModule -->
<g id="node5" class="node">
<title>GxeProcessModule</title>
<polygon fill="#8dd3c7" stroke="#000000" points="337.6331,-122 334.6331,-126 313.6331,-126 310.6331,-122 212.3669,-122 212.3669,-86 337.6331,-86 337.6331,-122"/>
<text text-anchor="middle" x="275" y="-99.8" font-family="Times,serif" font-size="14.00" fill="#000000">GxeProcessModule</text>
</g>
<!-- GxeProcessModule&#45;&gt;GxeRouterModule -->
<g id="edge5" class="edge">
<title>GxeProcessModule&#45;&gt;GxeRouterModule</title>
<path fill="none" stroke="#000000" d="M275,-122.027C275,-138.3976 275,-160 275,-160 275,-160 343.4369,-160 343.4369,-160"/>
<polygon fill="#000000" stroke="#000000" points="343.437,-163.5001 353.4369,-160 343.4369,-156.5001 343.437,-163.5001"/>
</g>
<!-- routes -->
<g id="node6" class="node">
<title>routes</title>
<polygon fill="#8dd3c7" stroke="#000000" points="194,-122 191,-126 170,-126 167,-122 140,-122 140,-86 194,-86 194,-122"/>
<text text-anchor="middle" x="167" y="-99.8" font-family="Times,serif" font-size="14.00" fill="#000000">routes</text>
</g>
<!-- routes&#45;&gt;GxeRouterModule -->
<g id="edge6" class="edge">
<title>routes&#45;&gt;GxeRouterModule</title>
<path fill="none" stroke="#000000" d="M167,-122.1061C167,-141.3391 167,-169 167,-169 167,-169 343.2607,-169 343.2607,-169"/>
<polygon fill="#000000" stroke="#000000" points="343.2607,-172.5001 353.2607,-169 343.2606,-165.5001 343.2607,-172.5001"/>
</g>
<!-- ProfileModule -->
<g id="node7" class="node">
<title>ProfileModule</title>
<polygon fill="#8dd3c7" stroke="#000000" points="121.65,-122 118.65,-126 97.65,-126 94.65,-122 24.35,-122 24.35,-86 121.65,-86 121.65,-122"/>
<text text-anchor="middle" x="73" y="-99.8" font-family="Times,serif" font-size="14.00" fill="#000000">ProfileModule</text>
</g>
<!-- ProfileModule&#45;&gt;GxeRouterModule -->
<g id="edge7" class="edge">
<title>ProfileModule&#45;&gt;GxeRouterModule</title>
<path fill="none" stroke="#000000" d="M73,-122.2921C73,-144.2057 73,-178 73,-178 73,-178 343.429,-178 343.429,-178"/>
<polygon fill="#000000" stroke="#000000" points="343.429,-181.5001 353.429,-178 343.4289,-174.5001 343.429,-181.5001"/>
</g>
</g>
</svg>
