<?xml version="1.0" encoding="UTF-8" standalone="no"?>
<!DOCTYPE svg PUBLIC "-//W3C//DTD SVG 1.1//EN"
 "http://www.w3.org/Graphics/SVG/1.1/DTD/svg11.dtd">
<!-- Generated by graphviz version 2.40.1 (20161225.0304)
 -->
<!-- Title: dependencies Pages: 1 -->
<svg width="504pt" height="284pt"
 viewBox="0.00 0.00 504.00 284.00" xmlns="http://www.w3.org/2000/svg" xmlns:xlink="http://www.w3.org/1999/xlink">
<g id="graph0" class="graph" transform="scale(1 1) rotate(0) translate(4 280)">
<title>dependencies</title>
<polygon fill="#ffffff" stroke="transparent" points="-4,4 -4,-280 500,-280 500,4 -4,4"/>
<text text-anchor="start" x="227.0091" y="-42.4" font-family="sans-serif" font-weight="bold" font-size="14.00" fill="#000000">Legend</text>
<polygon fill="#ffffb3" stroke="transparent" points="14,-10 14,-30 34,-30 34,-10 14,-10"/>
<text text-anchor="start" x="37.629" y="-15.4" font-family="sans-serif" font-size="14.00" fill="#000000"> &#160;Declarations</text>
<polygon fill="#8dd3c7" stroke="transparent" points="127,-10 127,-30 147,-30 147,-10 127,-10"/>
<text text-anchor="start" x="150.7251" y="-15.4" font-family="sans-serif" font-size="14.00" fill="#000000"> &#160;Module</text>
<polygon fill="#80b1d3" stroke="transparent" points="213,-10 213,-30 233,-30 233,-10 213,-10"/>
<text text-anchor="start" x="236.7812" y="-15.4" font-family="sans-serif" font-size="14.00" fill="#000000"> &#160;Bootstrap</text>
<polygon fill="#fdb462" stroke="transparent" points="310,-10 310,-30 330,-30 330,-10 310,-10"/>
<text text-anchor="start" x="333.6732" y="-15.4" font-family="sans-serif" font-size="14.00" fill="#000000"> &#160;Providers</text>
<polygon fill="#fb8072" stroke="transparent" points="406,-10 406,-30 426,-30 426,-10 406,-10"/>
<text text-anchor="start" x="429.7258" y="-15.4" font-family="sans-serif" font-size="14.00" fill="#000000"> &#160;Exports</text>
<g id="clust1" class="cluster">
<title>cluster_GxeIntroModule</title>
<polygon fill="none" stroke="#000000" stroke-dasharray="1,5" points="90,-70 90,-268 406,-268 406,-70 90,-70"/>
</g>
<g id="clust2" class="cluster">
<title>cluster_GxeIntroModule_declarations</title>
<polygon fill="none" stroke="#000000" points="274,-78 274,-130 398,-130 398,-78 274,-78"/>
</g>
<g id="clust4" class="cluster">
<title>cluster_GxeIntroModule_imports</title>
<polygon fill="none" stroke="#000000" points="98,-78 98,-130 266,-130 266,-78 98,-78"/>
</g>
<g id="clust5" class="cluster">
<title>cluster_GxeIntroModule_exports</title>
<polygon fill="none" stroke="#000000" points="194,-208 194,-260 322,-260 322,-208 194,-208"/>
</g>
<!-- IntroComponent -->
<g id="node1" class="node">
<title>IntroComponent</title>
<polygon fill="#ffffb3" stroke="#000000" points="390.0452,-122 281.9548,-122 281.9548,-86 390.0452,-86 390.0452,-122"/>
<text text-anchor="middle" x="336" y="-99.8" font-family="Times,serif" font-size="14.00" fill="#000000">IntroComponent</text>
</g>
<!-- GxeIntroModule -->
<g id="node2" class="node">
<title>GxeIntroModule</title>
<polygon fill="#8dd3c7" stroke="#000000" points="313.0828,-187 310.0828,-191 289.0828,-191 286.0828,-187 202.9172,-187 202.9172,-151 313.0828,-151 313.0828,-187"/>
<text text-anchor="middle" x="258" y="-164.8" font-family="Times,serif" font-size="14.00" fill="#000000">GxeIntroModule</text>
</g>
<!-- IntroComponent&#45;&gt;GxeIntroModule -->
<g id="edge1" class="edge">
<title>IntroComponent&#45;&gt;GxeIntroModule</title>
<path fill="none" stroke="#000000" d="M297.3847,-122.1061C297.3847,-122.1061 297.3847,-140.991 297.3847,-140.991"/>
<polygon fill="#000000" stroke="#000000" points="293.8847,-140.9909 297.3847,-150.991 300.8847,-140.991 293.8847,-140.9909"/>
</g>
<!-- IntroComponent  -->
<g id="node4" class="node">
<title>IntroComponent </title>
<polygon fill="#fb8072" stroke="#000000" points="314.0442,-252 201.9558,-252 201.9558,-216 314.0442,-216 314.0442,-252"/>
<text text-anchor="middle" x="258" y="-229.8" font-family="Times,serif" font-size="14.00" fill="#000000">IntroComponent </text>
</g>
<!-- GxeIntroModule&#45;&gt;IntroComponent  -->
<g id="edge3" class="edge">
<title>GxeIntroModule&#45;&gt;IntroComponent </title>
<path fill="none" stroke="#000000" stroke-dasharray="5,2" d="M258,-187.1061C258,-187.1061 258,-205.991 258,-205.991"/>
<polygon fill="#000000" stroke="#000000" points="254.5001,-205.9909 258,-215.991 261.5001,-205.991 254.5001,-205.9909"/>
</g>
<!-- MainNavigationModule -->
<g id="node3" class="node">
<title>MainNavigationModule</title>
<polygon fill="#8dd3c7" stroke="#000000" points="257.8075,-122 254.8075,-126 233.8075,-126 230.8075,-122 106.1925,-122 106.1925,-86 257.8075,-86 257.8075,-122"/>
<text text-anchor="middle" x="182" y="-99.8" font-family="Times,serif" font-size="14.00" fill="#000000">MainNavigationModule</text>
</g>
<!-- MainNavigationModule&#45;&gt;GxeIntroModule -->
<g id="edge2" class="edge">
<title>MainNavigationModule&#45;&gt;GxeIntroModule</title>
<path fill="none" stroke="#000000" d="M230.3061,-122.1061C230.3061,-122.1061 230.3061,-140.991 230.3061,-140.991"/>
<polygon fill="#000000" stroke="#000000" points="226.8062,-140.9909 230.3061,-150.991 233.8062,-140.991 226.8062,-140.9909"/>
</g>
</g>
</svg>
