<?xml version="1.0" encoding="UTF-8" standalone="no"?>
<!DOCTYPE svg PUBLIC "-//W3C//DTD SVG 1.1//EN"
 "http://www.w3.org/Graphics/SVG/1.1/DTD/svg11.dtd">
<!-- Generated by graphviz version 2.40.1 (20161225.0304)
 -->
<!-- Title: dependencies Pages: 1 -->
<svg width="1077pt" height="284pt"
 viewBox="0.00 0.00 1077.00 284.00" xmlns="http://www.w3.org/2000/svg" xmlns:xlink="http://www.w3.org/1999/xlink">
<g id="graph0" class="graph" transform="scale(1 1) rotate(0) translate(4 280)">
<title>dependencies</title>
<polygon fill="#ffffff" stroke="transparent" points="-4,4 -4,-280 1073,-280 1073,4 -4,4"/>
<text text-anchor="start" x="513.5091" y="-42.4" font-family="sans-serif" font-weight="bold" font-size="14.00" fill="#000000">Legend</text>
<polygon fill="#ffffb3" stroke="transparent" points="300.5,-10 300.5,-30 320.5,-30 320.5,-10 300.5,-10"/>
<text text-anchor="start" x="324.129" y="-15.4" font-family="sans-serif" font-size="14.00" fill="#000000"> &#160;Declarations</text>
<polygon fill="#8dd3c7" stroke="transparent" points="413.5,-10 413.5,-30 433.5,-30 433.5,-10 413.5,-10"/>
<text text-anchor="start" x="437.2251" y="-15.4" font-family="sans-serif" font-size="14.00" fill="#000000"> &#160;Module</text>
<polygon fill="#80b1d3" stroke="transparent" points="499.5,-10 499.5,-30 519.5,-30 519.5,-10 499.5,-10"/>
<text text-anchor="start" x="523.2812" y="-15.4" font-family="sans-serif" font-size="14.00" fill="#000000"> &#160;Bootstrap</text>
<polygon fill="#fdb462" stroke="transparent" points="596.5,-10 596.5,-30 616.5,-30 616.5,-10 596.5,-10"/>
<text text-anchor="start" x="620.1732" y="-15.4" font-family="sans-serif" font-size="14.00" fill="#000000"> &#160;Providers</text>
<polygon fill="#fb8072" stroke="transparent" points="692.5,-10 692.5,-30 712.5,-30 712.5,-10 692.5,-10"/>
<text text-anchor="start" x="716.2258" y="-15.4" font-family="sans-serif" font-size="14.00" fill="#000000"> &#160;Exports</text>
<g id="clust1" class="cluster">
<title>cluster_GxeGalleryModule</title>
<polygon fill="none" stroke="#000000" stroke-dasharray="1,5" points="8,-70 8,-268 1061,-268 1061,-70 8,-70"/>
</g>
<g id="clust2" class="cluster">
<title>cluster_GxeGalleryModule_declarations</title>
<polygon fill="none" stroke="#000000" points="408,-78 408,-130 1053,-130 1053,-78 408,-78"/>
</g>
<g id="clust8" class="cluster">
<title>cluster_GxeGalleryModule_exports</title>
<polygon fill="none" stroke="#000000" points="234,-208 234,-260 893,-260 893,-208 234,-208"/>
</g>
<g id="clust10" class="cluster">
<title>cluster_GxeGalleryModule_providers</title>
<polygon fill="none" stroke="#000000" points="16,-78 16,-130 400,-130 400,-78 16,-78"/>
</g>
<!-- GalleryItemComponent -->
<g id="node1" class="node">
<title>GalleryItemComponent</title>
<polygon fill="#ffffb3" stroke="#000000" points="1045.4664,-122 896.5336,-122 896.5336,-86 1045.4664,-86 1045.4664,-122"/>
<text text-anchor="middle" x="971" y="-99.8" font-family="Times,serif" font-size="14.00" fill="#000000">GalleryItemComponent</text>
</g>
<!-- GxeGalleryModule -->
<g id="node5" class="node">
<title>GxeGalleryModule</title>
<polygon fill="#8dd3c7" stroke="#000000" points="606.3487,-187 603.3487,-191 582.3487,-191 579.3487,-187 481.6513,-187 481.6513,-151 606.3487,-151 606.3487,-187"/>
<text text-anchor="middle" x="544" y="-164.8" font-family="Times,serif" font-size="14.00" fill="#000000">GxeGalleryModule</text>
</g>
<!-- GalleryItemComponent&#45;&gt;GxeGalleryModule -->
<g id="edge1" class="edge">
<title>GalleryItemComponent&#45;&gt;GxeGalleryModule</title>
<path fill="none" stroke="#000000" d="M971,-122.1061C971,-141.3391 971,-169 971,-169 971,-169 616.5468,-169 616.5468,-169"/>
<polygon fill="#000000" stroke="#000000" points="616.5468,-165.5001 606.5468,-169 616.5467,-172.5001 616.5468,-165.5001"/>
</g>
<!-- GalleryMasterComponent -->
<g id="node2" class="node">
<title>GalleryMasterComponent</title>
<polygon fill="#ffffb3" stroke="#000000" points="878.1797,-122 715.8203,-122 715.8203,-86 878.1797,-86 878.1797,-122"/>
<text text-anchor="middle" x="797" y="-99.8" font-family="Times,serif" font-size="14.00" fill="#000000">GalleryMasterComponent</text>
</g>
<!-- GalleryMasterComponent&#45;&gt;GxeGalleryModule -->
<g id="edge2" class="edge">
<title>GalleryMasterComponent&#45;&gt;GxeGalleryModule</title>
<path fill="none" stroke="#000000" d="M825.1133,-122.027C825.1133,-138.3976 825.1133,-160 825.1133,-160 825.1133,-160 616.3881,-160 616.3881,-160"/>
<polygon fill="#000000" stroke="#000000" points="616.3882,-156.5001 606.3881,-160 616.3881,-163.5001 616.3882,-156.5001"/>
</g>
<!-- GalleryDetailComponent -->
<g id="node3" class="node">
<title>GalleryDetailComponent</title>
<polygon fill="#ffffb3" stroke="#000000" points="697.5183,-122 540.4817,-122 540.4817,-86 697.5183,-86 697.5183,-122"/>
<text text-anchor="middle" x="619" y="-99.8" font-family="Times,serif" font-size="14.00" fill="#000000">GalleryDetailComponent</text>
</g>
<!-- GalleryDetailComponent&#45;&gt;GxeGalleryModule -->
<g id="edge3" class="edge">
<title>GalleryDetailComponent&#45;&gt;GxeGalleryModule</title>
<path fill="none" stroke="#000000" d="M573.3328,-122.1061C573.3328,-122.1061 573.3328,-140.991 573.3328,-140.991"/>
<polygon fill="#000000" stroke="#000000" points="569.8328,-140.9909 573.3328,-150.991 576.8328,-140.991 569.8328,-140.9909"/>
</g>
<!-- ItemComponent -->
<g id="node4" class="node">
<title>ItemComponent</title>
<polygon fill="#ffffb3" stroke="#000000" points="522.4888,-122 415.5112,-122 415.5112,-86 522.4888,-86 522.4888,-122"/>
<text text-anchor="middle" x="469" y="-99.8" font-family="Times,serif" font-size="14.00" fill="#000000">ItemComponent</text>
</g>
<!-- ItemComponent&#45;&gt;GxeGalleryModule -->
<g id="edge4" class="edge">
<title>ItemComponent&#45;&gt;GxeGalleryModule</title>
<path fill="none" stroke="#000000" d="M502.0351,-122.1061C502.0351,-122.1061 502.0351,-140.991 502.0351,-140.991"/>
<polygon fill="#000000" stroke="#000000" points="498.5351,-140.9909 502.0351,-150.991 505.5351,-140.991 498.5351,-140.9909"/>
</g>
<!-- GalleryMasterComponent  -->
<g id="node6" class="node">
<title>GalleryMasterComponent </title>
<polygon fill="#fb8072" stroke="#000000" points="884.6799,-252 719.3201,-252 719.3201,-216 884.6799,-216 884.6799,-252"/>
<text text-anchor="middle" x="802" y="-229.8" font-family="Times,serif" font-size="14.00" fill="#000000">GalleryMasterComponent </text>
</g>
<!-- GxeGalleryModule&#45;&gt;GalleryMasterComponent  -->
<g id="edge5" class="edge">
<title>GxeGalleryModule&#45;&gt;GalleryMasterComponent </title>
<path fill="none" stroke="#000000" stroke-dasharray="5,2" d="M606.6411,-178C674.1786,-178 772.1367,-178 772.1367,-178 772.1367,-178 772.1367,-205.973 772.1367,-205.973"/>
<polygon fill="#000000" stroke="#000000" points="768.6368,-205.973 772.1367,-215.973 775.6368,-205.973 768.6368,-205.973"/>
</g>
<!-- GalleryDetailComponent  -->
<g id="node7" class="node">
<title>GalleryDetailComponent </title>
<polygon fill="#fb8072" stroke="#000000" points="701.5176,-252 540.4824,-252 540.4824,-216 701.5176,-216 701.5176,-252"/>
<text text-anchor="middle" x="621" y="-229.8" font-family="Times,serif" font-size="14.00" fill="#000000">GalleryDetailComponent </text>
</g>
<!-- GxeGalleryModule&#45;&gt;GalleryDetailComponent  -->
<g id="edge6" class="edge">
<title>GxeGalleryModule&#45;&gt;GalleryDetailComponent </title>
<path fill="none" stroke="#000000" stroke-dasharray="5,2" d="M573.4578,-187.1061C573.4578,-187.1061 573.4578,-205.991 573.4578,-205.991"/>
<polygon fill="#000000" stroke="#000000" points="569.9578,-205.9909 573.4578,-215.991 576.9578,-205.991 569.9578,-205.9909"/>
</g>
<!-- ItemComponent  -->
<g id="node8" class="node">
<title>ItemComponent </title>
<polygon fill="#fb8072" stroke="#000000" points="522.4899,-252 411.5101,-252 411.5101,-216 522.4899,-216 522.4899,-252"/>
<text text-anchor="middle" x="467" y="-229.8" font-family="Times,serif" font-size="14.00" fill="#000000">ItemComponent </text>
</g>
<!-- GxeGalleryModule&#45;&gt;ItemComponent  -->
<g id="edge7" class="edge">
<title>GxeGalleryModule&#45;&gt;ItemComponent </title>
<path fill="none" stroke="#000000" stroke-dasharray="5,2" d="M501.9101,-187.1061C501.9101,-187.1061 501.9101,-205.991 501.9101,-205.991"/>
<polygon fill="#000000" stroke="#000000" points="498.4101,-205.9909 501.9101,-215.991 505.4101,-205.991 498.4101,-205.9909"/>
</g>
<!-- GalleryItemComponent  -->
<g id="node9" class="node">
<title>GalleryItemComponent </title>
<polygon fill="#fb8072" stroke="#000000" points="394.4671,-252 241.5329,-252 241.5329,-216 394.4671,-216 394.4671,-252"/>
<text text-anchor="middle" x="318" y="-229.8" font-family="Times,serif" font-size="14.00" fill="#000000">GalleryItemComponent </text>
</g>
<!-- GxeGalleryModule&#45;&gt;GalleryItemComponent  -->
<g id="edge8" class="edge">
<title>GxeGalleryModule&#45;&gt;GalleryItemComponent </title>
<path fill="none" stroke="#000000" stroke-dasharray="5,2" d="M481.383,-178C421.9758,-178 341.7212,-178 341.7212,-178 341.7212,-178 341.7212,-205.973 341.7212,-205.973"/>
<polygon fill="#000000" stroke="#000000" points="338.2213,-205.973 341.7212,-215.973 345.2213,-205.973 338.2213,-205.973"/>
</g>
<!-- WindowScrolling -->
<g id="node10" class="node">
<title>WindowScrolling</title>
<ellipse fill="#fdb462" stroke="#000000" cx="312" cy="-104" rx="79.8972" ry="18"/>
<text text-anchor="middle" x="312" y="-99.8" font-family="Times,serif" font-size="14.00" fill="#000000">WindowScrolling</text>
</g>
<!-- WindowScrolling&#45;&gt;GxeGalleryModule -->
<g id="edge9" class="edge">
<title>WindowScrolling&#45;&gt;GxeGalleryModule</title>
<path fill="none" stroke="#000000" d="M291.744,-121.4118C291.744,-137.8507 291.744,-160 291.744,-160 291.744,-160 471.6446,-160 471.6446,-160"/>
<polygon fill="#000000" stroke="#000000" points="471.6446,-163.5001 481.6446,-160 471.6445,-156.5001 471.6446,-163.5001"/>
</g>
<!-- SwipeVerticalService -->
<g id="node11" class="node">
<title>SwipeVerticalService</title>
<ellipse fill="#fdb462" stroke="#000000" cx="119" cy="-104" rx="95.4559" ry="18"/>
<text text-anchor="middle" x="119" y="-99.8" font-family="Times,serif" font-size="14.00" fill="#000000">SwipeVerticalService</text>
</g>
<!-- SwipeVerticalService&#45;&gt;GxeGalleryModule -->
<g id="edge10" class="edge">
<title>SwipeVerticalService&#45;&gt;GxeGalleryModule</title>
<path fill="none" stroke="#000000" d="M119,-122.1061C119,-141.3391 119,-169 119,-169 119,-169 471.2898,-169 471.2898,-169"/>
<polygon fill="#000000" stroke="#000000" points="471.2898,-172.5001 481.2898,-169 471.2898,-165.5001 471.2898,-172.5001"/>
</g>
</g>
</svg>
