<?xml version="1.0" encoding="UTF-8" standalone="no"?>
<!DOCTYPE svg PUBLIC "-//W3C//DTD SVG 1.1//EN"
 "http://www.w3.org/Graphics/SVG/1.1/DTD/svg11.dtd">
<!-- Generated by graphviz version 2.40.1 (20161225.0304)
 -->
<!-- Title: dependencies Pages: 1 -->
<svg width="1227pt" height="284pt"
 viewBox="0.00 0.00 1227.00 284.00" xmlns="http://www.w3.org/2000/svg" xmlns:xlink="http://www.w3.org/1999/xlink">
<g id="graph0" class="graph" transform="scale(1 1) rotate(0) translate(4 280)">
<title>dependencies</title>
<polygon fill="#ffffff" stroke="transparent" points="-4,4 -4,-280 1223,-280 1223,4 -4,4"/>
<text text-anchor="start" x="588.5091" y="-42.4" font-family="sans-serif" font-weight="bold" font-size="14.00" fill="#000000">Legend</text>
<polygon fill="#ffffb3" stroke="transparent" points="375.5,-10 375.5,-30 395.5,-30 395.5,-10 375.5,-10"/>
<text text-anchor="start" x="399.129" y="-15.4" font-family="sans-serif" font-size="14.00" fill="#000000"> &#160;Declarations</text>
<polygon fill="#8dd3c7" stroke="transparent" points="488.5,-10 488.5,-30 508.5,-30 508.5,-10 488.5,-10"/>
<text text-anchor="start" x="512.2251" y="-15.4" font-family="sans-serif" font-size="14.00" fill="#000000"> &#160;Module</text>
<polygon fill="#80b1d3" stroke="transparent" points="574.5,-10 574.5,-30 594.5,-30 594.5,-10 574.5,-10"/>
<text text-anchor="start" x="598.2812" y="-15.4" font-family="sans-serif" font-size="14.00" fill="#000000"> &#160;Bootstrap</text>
<polygon fill="#fdb462" stroke="transparent" points="671.5,-10 671.5,-30 691.5,-30 691.5,-10 671.5,-10"/>
<text text-anchor="start" x="695.1732" y="-15.4" font-family="sans-serif" font-size="14.00" fill="#000000"> &#160;Providers</text>
<polygon fill="#fb8072" stroke="transparent" points="767.5,-10 767.5,-30 787.5,-30 787.5,-10 767.5,-10"/>
<text text-anchor="start" x="791.2258" y="-15.4" font-family="sans-serif" font-size="14.00" fill="#000000"> &#160;Exports</text>
<g id="clust1" class="cluster">
<title>cluster_GxeGalleryModule</title>
<polygon fill="none" stroke="#000000" stroke-dasharray="1,5" points="8,-70 8,-268 1211,-268 1211,-70 8,-70"/>
</g>
<g id="clust2" class="cluster">
<title>cluster_GxeGalleryModule_declarations</title>
<polygon fill="none" stroke="#000000" points="408,-78 408,-130 1203,-130 1203,-78 408,-78"/>
</g>
<g id="clust9" class="cluster">
<title>cluster_GxeGalleryModule_exports</title>
<polygon fill="none" stroke="#000000" points="254,-208 254,-260 1066,-260 1066,-208 254,-208"/>
</g>
<g id="clust11" class="cluster">
<title>cluster_GxeGalleryModule_providers</title>
<polygon fill="none" stroke="#000000" points="16,-78 16,-130 400,-130 400,-78 16,-78"/>
</g>
<!-- GalleryMasterComponent -->
<g id="node1" class="node">
<title>GalleryMasterComponent</title>
<polygon fill="#ffffb3" stroke="#000000" points="1195.1797,-122 1032.8203,-122 1032.8203,-86 1195.1797,-86 1195.1797,-122"/>
<text text-anchor="middle" x="1114" y="-99.8" font-family="Times,serif" font-size="14.00" fill="#000000">GalleryMasterComponent</text>
</g>
<!-- GxeGalleryModule -->
<g id="node6" class="node">
<title>GxeGalleryModule</title>
<polygon fill="#8dd3c7" stroke="#000000" points="702.3487,-187 699.3487,-191 678.3487,-191 675.3487,-187 577.6513,-187 577.6513,-151 702.3487,-151 702.3487,-187"/>
<text text-anchor="middle" x="640" y="-164.8" font-family="Times,serif" font-size="14.00" fill="#000000">GxeGalleryModule</text>
</g>
<!-- GalleryMasterComponent&#45;&gt;GxeGalleryModule -->
<g id="edge1" class="edge">
<title>GalleryMasterComponent&#45;&gt;GxeGalleryModule</title>
<path fill="none" stroke="#000000" d="M1045.375,-122.1289C1045.375,-142.5724 1045.375,-173 1045.375,-173 1045.375,-173 712.4515,-173 712.4515,-173"/>
<polygon fill="#000000" stroke="#000000" points="712.4515,-169.5001 702.4515,-173 712.4514,-176.5001 712.4515,-169.5001"/>
</g>
<!-- GalleryDetailComponent -->
<g id="node2" class="node">
<title>GalleryDetailComponent</title>
<polygon fill="#ffffb3" stroke="#000000" points="1014.5183,-122 857.4817,-122 857.4817,-86 1014.5183,-86 1014.5183,-122"/>
<text text-anchor="middle" x="936" y="-99.8" font-family="Times,serif" font-size="14.00" fill="#000000">GalleryDetailComponent</text>
</g>
<!-- GalleryDetailComponent&#45;&gt;GxeGalleryModule -->
<g id="edge2" class="edge">
<title>GalleryDetailComponent&#45;&gt;GxeGalleryModule</title>
<path fill="none" stroke="#000000" d="M865.875,-122.2667C865.875,-140.5552 865.875,-166 865.875,-166 865.875,-166 712.6188,-166 712.6188,-166"/>
<polygon fill="#000000" stroke="#000000" points="712.6189,-162.5001 702.6188,-166 712.6188,-169.5001 712.6189,-162.5001"/>
</g>
<!-- ItemComponent -->
<g id="node3" class="node">
<title>ItemComponent</title>
<polygon fill="#ffffb3" stroke="#000000" points="839.4888,-122 732.5112,-122 732.5112,-86 839.4888,-86 839.4888,-122"/>
<text text-anchor="middle" x="786" y="-99.8" font-family="Times,serif" font-size="14.00" fill="#000000">ItemComponent</text>
</g>
<!-- ItemComponent&#45;&gt;GxeGalleryModule -->
<g id="edge3" class="edge">
<title>ItemComponent&#45;&gt;GxeGalleryModule</title>
<path fill="none" stroke="#000000" d="M786,-122.0091C786,-138.0494 786,-159 786,-159 786,-159 712.7645,-159 712.7645,-159"/>
<polygon fill="#000000" stroke="#000000" points="712.7645,-155.5001 702.7645,-159 712.7644,-162.5001 712.7645,-155.5001"/>
</g>
<!-- GalleryItemComponent -->
<g id="node4" class="node">
<title>GalleryItemComponent</title>
<polygon fill="#ffffb3" stroke="#000000" points="714.4664,-122 565.5336,-122 565.5336,-86 714.4664,-86 714.4664,-122"/>
<text text-anchor="middle" x="640" y="-99.8" font-family="Times,serif" font-size="14.00" fill="#000000">GalleryItemComponent</text>
</g>
<!-- GalleryItemComponent&#45;&gt;GxeGalleryModule -->
<g id="edge4" class="edge">
<title>GalleryItemComponent&#45;&gt;GxeGalleryModule</title>
<path fill="none" stroke="#000000" d="M640,-122.1061C640,-122.1061 640,-140.991 640,-140.991"/>
<polygon fill="#000000" stroke="#000000" points="636.5001,-140.9909 640,-150.991 643.5001,-140.991 636.5001,-140.9909"/>
</g>
<!-- ToolbarsComponent -->
<g id="node5" class="node">
<title>ToolbarsComponent</title>
<polygon fill="#ffffb3" stroke="#000000" points="547.5954,-122 416.4046,-122 416.4046,-86 547.5954,-86 547.5954,-122"/>
<text text-anchor="middle" x="482" y="-99.8" font-family="Times,serif" font-size="14.00" fill="#000000">ToolbarsComponent</text>
</g>
<!-- ToolbarsComponent&#45;&gt;GxeGalleryModule -->
<g id="edge5" class="edge">
<title>ToolbarsComponent&#45;&gt;GxeGalleryModule</title>
<path fill="none" stroke="#000000" d="M482,-122.0091C482,-138.0494 482,-159 482,-159 482,-159 567.5542,-159 567.5542,-159"/>
<polygon fill="#000000" stroke="#000000" points="567.5543,-162.5001 577.5542,-159 567.5542,-155.5001 567.5543,-162.5001"/>
</g>
<!-- GalleryMasterComponent  -->
<g id="node7" class="node">
<title>GalleryMasterComponent </title>
<polygon fill="#fb8072" stroke="#000000" points="1057.6799,-252 892.3201,-252 892.3201,-216 1057.6799,-216 1057.6799,-252"/>
<text text-anchor="middle" x="975" y="-229.8" font-family="Times,serif" font-size="14.00" fill="#000000">GalleryMasterComponent </text>
</g>
<!-- GxeGalleryModule&#45;&gt;GalleryMasterComponent  -->
<g id="edge6" class="edge">
<title>GxeGalleryModule&#45;&gt;GalleryMasterComponent </title>
<path fill="none" stroke="#000000" stroke-dasharray="5,2" d="M702.6798,-180C794.1553,-180 953.4595,-180 953.4595,-180 953.4595,-180 953.4595,-205.7181 953.4595,-205.7181"/>
<polygon fill="#000000" stroke="#000000" points="949.9596,-205.718 953.4595,-215.7181 956.9596,-205.7181 949.9596,-205.718"/>
</g>
<!-- GalleryDetailComponent  -->
<g id="node8" class="node">
<title>GalleryDetailComponent </title>
<polygon fill="#fb8072" stroke="#000000" points="874.5176,-252 713.4824,-252 713.4824,-216 874.5176,-216 874.5176,-252"/>
<text text-anchor="middle" x="794" y="-229.8" font-family="Times,serif" font-size="14.00" fill="#000000">GalleryDetailComponent </text>
</g>
<!-- GxeGalleryModule&#45;&gt;GalleryDetailComponent  -->
<g id="edge7" class="edge">
<title>GxeGalleryModule&#45;&gt;GalleryDetailComponent </title>
<path fill="none" stroke="#000000" stroke-dasharray="5,2" d="M698.8344,-187.1061C698.8344,-206.3391 698.8344,-234 698.8344,-234 698.8344,-234 703.288,-234 703.288,-234"/>
<polygon fill="#000000" stroke="#000000" points="703.288,-237.5001 713.288,-234 703.2879,-230.5001 703.288,-237.5001"/>
</g>
<!-- ItemComponent  -->
<g id="node9" class="node">
<title>ItemComponent </title>
<polygon fill="#fb8072" stroke="#000000" points="695.4899,-252 584.5101,-252 584.5101,-216 695.4899,-216 695.4899,-252"/>
<text text-anchor="middle" x="640" y="-229.8" font-family="Times,serif" font-size="14.00" fill="#000000">ItemComponent </text>
</g>
<!-- GxeGalleryModule&#45;&gt;ItemComponent  -->
<g id="edge8" class="edge">
<title>GxeGalleryModule&#45;&gt;ItemComponent </title>
<path fill="none" stroke="#000000" stroke-dasharray="5,2" d="M640,-187.1061C640,-187.1061 640,-205.991 640,-205.991"/>
<polygon fill="#000000" stroke="#000000" points="636.5001,-205.9909 640,-215.991 643.5001,-205.991 636.5001,-205.9909"/>
</g>
<!-- GalleryItemComponent  -->
<g id="node10" class="node">
<title>GalleryItemComponent </title>
<polygon fill="#fb8072" stroke="#000000" points="567.4671,-252 414.5329,-252 414.5329,-216 567.4671,-216 567.4671,-252"/>
<text text-anchor="middle" x="491" y="-229.8" font-family="Times,serif" font-size="14.00" fill="#000000">GalleryItemComponent </text>
</g>
<!-- GxeGalleryModule&#45;&gt;GalleryItemComponent  -->
<g id="edge9" class="edge">
<title>GxeGalleryModule&#45;&gt;GalleryItemComponent </title>
<path fill="none" stroke="#000000" stroke-dasharray="5,2" d="M581.1657,-187.1061C581.1657,-206.3391 581.1657,-234 581.1657,-234 581.1657,-234 577.4714,-234 577.4714,-234"/>
<polygon fill="#000000" stroke="#000000" points="577.4715,-230.5001 567.4714,-234 577.4714,-237.5001 577.4715,-230.5001"/>
</g>
<!-- ToolbarsComponent  -->
<g id="node11" class="node">
<title>ToolbarsComponent </title>
<polygon fill="#fb8072" stroke="#000000" points="396.096,-252 261.904,-252 261.904,-216 396.096,-216 396.096,-252"/>
<text text-anchor="middle" x="329" y="-229.8" font-family="Times,serif" font-size="14.00" fill="#000000">ToolbarsComponent </text>
</g>
<!-- GxeGalleryModule&#45;&gt;ToolbarsComponent  -->
<g id="edge10" class="edge">
<title>GxeGalleryModule&#45;&gt;ToolbarsComponent </title>
<path fill="none" stroke="#000000" stroke-dasharray="5,2" d="M577.4373,-180C491.7457,-180 348.3663,-180 348.3663,-180 348.3663,-180 348.3663,-205.7181 348.3663,-205.7181"/>
<polygon fill="#000000" stroke="#000000" points="344.8664,-205.718 348.3663,-215.7181 351.8664,-205.7181 344.8664,-205.718"/>
</g>
<!-- WindowScrolling -->
<g id="node12" class="node">
<title>WindowScrolling</title>
<ellipse fill="#fdb462" stroke="#000000" cx="312" cy="-104" rx="79.8972" ry="18"/>
<text text-anchor="middle" x="312" y="-99.8" font-family="Times,serif" font-size="14.00" fill="#000000">WindowScrolling</text>
</g>
<!-- WindowScrolling&#45;&gt;GxeGalleryModule -->
<g id="edge11" class="edge">
<title>WindowScrolling&#45;&gt;GxeGalleryModule</title>
<path fill="none" stroke="#000000" d="M305.0343,-121.933C305.0343,-140.2439 305.0343,-166 305.0343,-166 305.0343,-166 567.3885,-166 567.3885,-166"/>
<polygon fill="#000000" stroke="#000000" points="567.3885,-169.5001 577.3885,-166 567.3884,-162.5001 567.3885,-169.5001"/>
</g>
<!-- SwipeVerticalService -->
<g id="node13" class="node">
<title>SwipeVerticalService</title>
<ellipse fill="#fdb462" stroke="#000000" cx="119" cy="-104" rx="95.4559" ry="18"/>
<text text-anchor="middle" x="119" y="-99.8" font-family="Times,serif" font-size="14.00" fill="#000000">SwipeVerticalService</text>
</g>
<!-- SwipeVerticalService&#45;&gt;GxeGalleryModule -->
<g id="edge12" class="edge">
<title>SwipeVerticalService&#45;&gt;GxeGalleryModule</title>
<path fill="none" stroke="#000000" d="M119,-122.1289C119,-142.5724 119,-173 119,-173 119,-173 567.4142,-173 567.4142,-173"/>
<polygon fill="#000000" stroke="#000000" points="567.4142,-176.5001 577.4142,-173 567.4142,-169.5001 567.4142,-176.5001"/>
</g>
</g>
</svg>
