<?xml version="1.0" encoding="UTF-8" standalone="no"?>
<!DOCTYPE svg PUBLIC "-//W3C//DTD SVG 1.1//EN"
 "http://www.w3.org/Graphics/SVG/1.1/DTD/svg11.dtd">
<!-- Generated by graphviz version 2.40.1 (20161225.0304)
 -->
<!-- Title: dependencies Pages: 1 -->
<svg width="504pt" height="284pt"
 viewBox="0.00 0.00 504.00 284.00" xmlns="http://www.w3.org/2000/svg" xmlns:xlink="http://www.w3.org/1999/xlink">
<g id="graph0" class="graph" transform="scale(1 1) rotate(0) translate(4 280)">
<title>dependencies</title>
<polygon fill="#ffffff" stroke="transparent" points="-4,4 -4,-280 500,-280 500,4 -4,4"/>
<text text-anchor="start" x="227.0091" y="-42.4" font-family="sans-serif" font-weight="bold" font-size="14.00" fill="#000000">Legend</text>
<polygon fill="#ffffb3" stroke="transparent" points="14,-10 14,-30 34,-30 34,-10 14,-10"/>
<text text-anchor="start" x="37.629" y="-15.4" font-family="sans-serif" font-size="14.00" fill="#000000"> &#160;Declarations</text>
<polygon fill="#8dd3c7" stroke="transparent" points="127,-10 127,-30 147,-30 147,-10 127,-10"/>
<text text-anchor="start" x="150.7251" y="-15.4" font-family="sans-serif" font-size="14.00" fill="#000000"> &#160;Module</text>
<polygon fill="#80b1d3" stroke="transparent" points="213,-10 213,-30 233,-30 233,-10 213,-10"/>
<text text-anchor="start" x="236.7812" y="-15.4" font-family="sans-serif" font-size="14.00" fill="#000000"> &#160;Bootstrap</text>
<polygon fill="#fdb462" stroke="transparent" points="310,-10 310,-30 330,-30 330,-10 310,-10"/>
<text text-anchor="start" x="333.6732" y="-15.4" font-family="sans-serif" font-size="14.00" fill="#000000"> &#160;Providers</text>
<polygon fill="#fb8072" stroke="transparent" points="406,-10 406,-30 426,-30 426,-10 406,-10"/>
<text text-anchor="start" x="429.7258" y="-15.4" font-family="sans-serif" font-size="14.00" fill="#000000"> &#160;Exports</text>
<g id="clust1" class="cluster">
<title>cluster_MhPipesModule</title>
<polygon fill="none" stroke="#000000" stroke-dasharray="1,5" points="115,-70 115,-268 381,-268 381,-70 115,-70"/>
</g>
<g id="clust2" class="cluster">
<title>cluster_MhPipesModule_declarations</title>
<polygon fill="none" stroke="#000000" points="127,-78 127,-130 370,-130 370,-78 127,-78"/>
</g>
<g id="clust6" class="cluster">
<title>cluster_MhPipesModule_exports</title>
<polygon fill="none" stroke="#000000" points="123,-208 123,-260 373,-260 373,-208 123,-208"/>
</g>
<!-- SupSubPipe -->
<g id="node1" class="node">
<title>SupSubPipe</title>
<polygon fill="#ffffb3" stroke="#000000" points="362.4542,-122 277.5458,-122 277.5458,-86 362.4542,-86 362.4542,-122"/>
<text text-anchor="middle" x="320" y="-99.8" font-family="Times,serif" font-size="14.00" fill="#000000">SupSubPipe</text>
</g>
<!-- MhPipesModule -->
<g id="node3" class="node">
<title>MhPipesModule</title>
<polygon fill="#8dd3c7" stroke="#000000" points="252.8273,-187 249.8273,-191 228.8273,-191 225.8273,-187 143.1727,-187 143.1727,-151 252.8273,-151 252.8273,-187"/>
<text text-anchor="middle" x="198" y="-164.8" font-family="Times,serif" font-size="14.00" fill="#000000">MhPipesModule</text>
</g>
<!-- SupSubPipe&#45;&gt;MhPipesModule -->
<g id="edge1" class="edge">
<title>SupSubPipe&#45;&gt;MhPipesModule</title>
<path fill="none" stroke="#000000" d="M334.0755,-122.0225C334.0755,-139.3734 334.0755,-163 334.0755,-163 334.0755,-163 262.9549,-163 262.9549,-163"/>
<polygon fill="#000000" stroke="#000000" points="262.9549,-159.5001 252.9549,-163 262.9548,-166.5001 262.9549,-159.5001"/>
</g>
<!-- CommaToAndPipe -->
<g id="node2" class="node">
<title>CommaToAndPipe</title>
<polygon fill="#ffffb3" stroke="#000000" points="259.3795,-122 134.6205,-122 134.6205,-86 259.3795,-86 259.3795,-122"/>
<text text-anchor="middle" x="197" y="-99.8" font-family="Times,serif" font-size="14.00" fill="#000000">CommaToAndPipe</text>
</g>
<!-- CommaToAndPipe&#45;&gt;MhPipesModule -->
<g id="edge2" class="edge">
<title>CommaToAndPipe&#45;&gt;MhPipesModule</title>
<path fill="none" stroke="#000000" d="M198,-122.1061C198,-122.1061 198,-140.991 198,-140.991"/>
<polygon fill="#000000" stroke="#000000" points="194.5001,-140.9909 198,-150.991 201.5001,-140.991 194.5001,-140.9909"/>
</g>
<!-- SupSubPipe  -->
<g id="node4" class="node">
<title>SupSubPipe </title>
<polygon fill="#fb8072" stroke="#000000" points="364.953,-252 277.047,-252 277.047,-216 364.953,-216 364.953,-252"/>
<text text-anchor="middle" x="321" y="-229.8" font-family="Times,serif" font-size="14.00" fill="#000000">SupSubPipe </text>
</g>
<!-- MhPipesModule&#45;&gt;SupSubPipe  -->
<g id="edge3" class="edge">
<title>MhPipesModule&#45;&gt;SupSubPipe </title>
<path fill="none" stroke="#000000" stroke-dasharray="5,2" d="M252.9108,-175C279.572,-175 305.9245,-175 305.9245,-175 305.9245,-175 305.9245,-205.9775 305.9245,-205.9775"/>
<polygon fill="#000000" stroke="#000000" points="302.4246,-205.9774 305.9245,-215.9775 309.4246,-205.9775 302.4246,-205.9774"/>
</g>
<!-- CommaToAndPipe  -->
<g id="node5" class="node">
<title>CommaToAndPipe </title>
<polygon fill="#fb8072" stroke="#000000" points="259.38,-252 130.62,-252 130.62,-216 259.38,-216 259.38,-252"/>
<text text-anchor="middle" x="195" y="-229.8" font-family="Times,serif" font-size="14.00" fill="#000000">CommaToAndPipe </text>
</g>
<!-- MhPipesModule&#45;&gt;CommaToAndPipe  -->
<g id="edge4" class="edge">
<title>MhPipesModule&#45;&gt;CommaToAndPipe </title>
<path fill="none" stroke="#000000" stroke-dasharray="5,2" d="M198,-187.1061C198,-187.1061 198,-205.991 198,-205.991"/>
<polygon fill="#000000" stroke="#000000" points="194.5001,-205.9909 198,-215.991 201.5001,-205.991 194.5001,-205.9909"/>
</g>
</g>
</svg>
