<?xml version="1.0" encoding="UTF-8" standalone="no"?>
<!DOCTYPE svg PUBLIC "-//W3C//DTD SVG 1.1//EN"
 "http://www.w3.org/Graphics/SVG/1.1/DTD/svg11.dtd">
<!-- Generated by graphviz version 2.40.1 (20161225.0304)
 -->
<!-- Title: dependencies Pages: 1 -->
<svg width="1904pt" height="284pt"
 viewBox="0.00 0.00 1904.00 284.00" xmlns="http://www.w3.org/2000/svg" xmlns:xlink="http://www.w3.org/1999/xlink">
<g id="graph0" class="graph" transform="scale(1 1) rotate(0) translate(4 280)">
<title>dependencies</title>
<polygon fill="#ffffff" stroke="transparent" points="-4,4 -4,-280 1900,-280 1900,4 -4,4"/>
<text text-anchor="start" x="927.0091" y="-42.4" font-family="sans-serif" font-weight="bold" font-size="14.00" fill="#000000">Legend</text>
<polygon fill="#ffffb3" stroke="transparent" points="714,-10 714,-30 734,-30 734,-10 714,-10"/>
<text text-anchor="start" x="737.629" y="-15.4" font-family="sans-serif" font-size="14.00" fill="#000000"> &#160;Declarations</text>
<polygon fill="#8dd3c7" stroke="transparent" points="827,-10 827,-30 847,-30 847,-10 827,-10"/>
<text text-anchor="start" x="850.7251" y="-15.4" font-family="sans-serif" font-size="14.00" fill="#000000"> &#160;Module</text>
<polygon fill="#80b1d3" stroke="transparent" points="913,-10 913,-30 933,-30 933,-10 913,-10"/>
<text text-anchor="start" x="936.7812" y="-15.4" font-family="sans-serif" font-size="14.00" fill="#000000"> &#160;Bootstrap</text>
<polygon fill="#fdb462" stroke="transparent" points="1010,-10 1010,-30 1030,-30 1030,-10 1010,-10"/>
<text text-anchor="start" x="1033.6732" y="-15.4" font-family="sans-serif" font-size="14.00" fill="#000000"> &#160;Providers</text>
<polygon fill="#fb8072" stroke="transparent" points="1106,-10 1106,-30 1126,-30 1126,-10 1106,-10"/>
<text text-anchor="start" x="1129.7258" y="-15.4" font-family="sans-serif" font-size="14.00" fill="#000000"> &#160;Exports</text>
<g id="clust1" class="cluster">
<title>cluster_ProfileComponentsModule</title>
<polygon fill="none" stroke="#000000" stroke-dasharray="1,5" points="8,-70 8,-268 1888,-268 1888,-70 8,-70"/>
</g>
<g id="clust2" class="cluster">
<title>cluster_ProfileComponentsModule_declarations</title>
<polygon fill="none" stroke="#000000" points="34,-78 34,-130 1861,-130 1861,-78 34,-78"/>
</g>
<g id="clust15" class="cluster">
<title>cluster_ProfileComponentsModule_exports</title>
<polygon fill="none" stroke="#000000" points="16,-208 16,-260 1880,-260 1880,-208 16,-208"/>
</g>
<!-- StandardBlockComponent -->
<g id="node1" class="node">
<title>StandardBlockComponent</title>
<polygon fill="#ffffb3" stroke="#000000" points="1853.0378,-122 1688.9622,-122 1688.9622,-86 1853.0378,-86 1853.0378,-122"/>
<text text-anchor="middle" x="1771" y="-99.8" font-family="Times,serif" font-size="14.00" fill="#000000">StandardBlockComponent</text>
</g>
<!-- ProfileComponentsModule -->
<g id="node12" class="node">
<title>ProfileComponentsModule</title>
<polygon fill="#8dd3c7" stroke="#000000" points="990.4269,-187 987.4269,-191 966.4269,-191 963.4269,-187 821.5731,-187 821.5731,-151 990.4269,-151 990.4269,-187"/>
<text text-anchor="middle" x="906" y="-164.8" font-family="Times,serif" font-size="14.00" fill="#000000">ProfileComponentsModule</text>
</g>
<!-- StandardBlockComponent&#45;&gt;ProfileComponentsModule -->
<g id="edge1" class="edge">
<title>StandardBlockComponent&#45;&gt;ProfileComponentsModule</title>
<path fill="none" stroke="#000000" d="M1696.3564,-122.2667C1696.3564,-140.5552 1696.3564,-166 1696.3564,-166 1696.3564,-166 1000.582,-166 1000.582,-166"/>
<polygon fill="#000000" stroke="#000000" points="1000.582,-162.5001 990.582,-166 1000.5819,-169.5001 1000.582,-162.5001"/>
</g>
<!-- DisclaimerComponent -->
<g id="node2" class="node">
<title>DisclaimerComponent</title>
<polygon fill="#ffffb3" stroke="#000000" points="1670.2506,-122 1527.7494,-122 1527.7494,-86 1670.2506,-86 1670.2506,-122"/>
<text text-anchor="middle" x="1599" y="-99.8" font-family="Times,serif" font-size="14.00" fill="#000000">DisclaimerComponent</text>
</g>
<!-- DisclaimerComponent&#45;&gt;ProfileComponentsModule -->
<g id="edge2" class="edge">
<title>DisclaimerComponent&#45;&gt;ProfileComponentsModule</title>
<path fill="none" stroke="#000000" d="M1533.7498,-122.0336C1533.7498,-139.0597 1533.7498,-162 1533.7498,-162 1533.7498,-162 1000.3352,-162 1000.3352,-162"/>
<polygon fill="#000000" stroke="#000000" points="1000.3352,-158.5001 990.3352,-162 1000.3352,-165.5001 1000.3352,-158.5001"/>
</g>
<!-- StandardListComponent -->
<g id="node3" class="node">
<title>StandardListComponent</title>
<polygon fill="#ffffb3" stroke="#000000" points="1509.3739,-122 1356.6261,-122 1356.6261,-86 1509.3739,-86 1509.3739,-122"/>
<text text-anchor="middle" x="1433" y="-99.8" font-family="Times,serif" font-size="14.00" fill="#000000">StandardListComponent</text>
</g>
<!-- StandardListComponent&#45;&gt;ProfileComponentsModule -->
<g id="edge3" class="edge">
<title>StandardListComponent&#45;&gt;ProfileComponentsModule</title>
<path fill="none" stroke="#000000" d="M1361.1881,-122.0091C1361.1881,-138.0494 1361.1881,-159 1361.1881,-159 1361.1881,-159 1000.2847,-159 1000.2847,-159"/>
<polygon fill="#000000" stroke="#000000" points="1000.2847,-155.5001 990.2847,-159 1000.2846,-162.5001 1000.2847,-155.5001"/>
</g>
<!-- StandardTableComponent -->
<g id="node4" class="node">
<title>StandardTableComponent</title>
<polygon fill="#ffffb3" stroke="#000000" points="1338.4678,-122 1175.5322,-122 1175.5322,-86 1338.4678,-86 1338.4678,-122"/>
<text text-anchor="middle" x="1257" y="-99.8" font-family="Times,serif" font-size="14.00" fill="#000000">StandardTableComponent</text>
</g>
<!-- StandardTableComponent&#45;&gt;ProfileComponentsModule -->
<g id="edge4" class="edge">
<title>StandardTableComponent&#45;&gt;ProfileComponentsModule</title>
<path fill="none" stroke="#000000" d="M1286.2446,-122.1243C1286.2446,-136.7832 1286.2446,-155 1286.2446,-155 1286.2446,-155 1000.3886,-155 1000.3886,-155"/>
<polygon fill="#000000" stroke="#000000" points="1000.3886,-151.5001 990.3886,-155 1000.3886,-158.5001 1000.3886,-151.5001"/>
</g>
<!-- StandardRichComponent -->
<g id="node5" class="node">
<title>StandardRichComponent</title>
<polygon fill="#ffffb3" stroke="#000000" points="1157.5379,-122 1000.4621,-122 1000.4621,-86 1157.5379,-86 1157.5379,-122"/>
<text text-anchor="middle" x="1079" y="-99.8" font-family="Times,serif" font-size="14.00" fill="#000000">StandardRichComponent</text>
</g>
<!-- StandardRichComponent&#45;&gt;ProfileComponentsModule -->
<g id="edge5" class="edge">
<title>StandardRichComponent&#45;&gt;ProfileComponentsModule</title>
<path fill="none" stroke="#000000" d="M1000.4001,-104C991.9373,-104 986.3247,-104 986.3247,-104 986.3247,-104 986.3247,-140.8939 986.3247,-140.8939"/>
<polygon fill="#000000" stroke="#000000" points="982.8248,-140.8938 986.3247,-150.8939 989.8248,-140.8939 982.8248,-140.8938"/>
</g>
<!-- CarouselListComponent -->
<g id="node6" class="node">
<title>CarouselListComponent</title>
<polygon fill="#ffffb3" stroke="#000000" points="982.3725,-122 829.6275,-122 829.6275,-86 982.3725,-86 982.3725,-122"/>
<text text-anchor="middle" x="906" y="-99.8" font-family="Times,serif" font-size="14.00" fill="#000000">CarouselListComponent</text>
</g>
<!-- CarouselListComponent&#45;&gt;ProfileComponentsModule -->
<g id="edge6" class="edge">
<title>CarouselListComponent&#45;&gt;ProfileComponentsModule</title>
<path fill="none" stroke="#000000" d="M906,-122.1061C906,-122.1061 906,-140.991 906,-140.991"/>
<polygon fill="#000000" stroke="#000000" points="902.5001,-140.9909 906,-150.991 909.5001,-140.991 902.5001,-140.9909"/>
</g>
<!-- CarouselItemComponent -->
<g id="node7" class="node">
<title>CarouselItemComponent</title>
<polygon fill="#ffffb3" stroke="#000000" points="811.2506,-122 654.7494,-122 654.7494,-86 811.2506,-86 811.2506,-122"/>
<text text-anchor="middle" x="733" y="-99.8" font-family="Times,serif" font-size="14.00" fill="#000000">CarouselItemComponent</text>
</g>
<!-- CarouselItemComponent&#45;&gt;ProfileComponentsModule -->
<g id="edge7" class="edge">
<title>CarouselItemComponent&#45;&gt;ProfileComponentsModule</title>
<path fill="none" stroke="#000000" d="M811.5999,-104C820.0627,-104 825.6753,-104 825.6753,-104 825.6753,-104 825.6753,-140.8939 825.6753,-140.8939"/>
<polygon fill="#000000" stroke="#000000" points="822.1754,-140.8938 825.6753,-150.8939 829.1754,-140.8939 822.1754,-140.8938"/>
</g>
<!-- VideoBlockComponent -->
<g id="node8" class="node">
<title>VideoBlockComponent</title>
<polygon fill="#ffffb3" stroke="#000000" points="636.486,-122 487.514,-122 487.514,-86 636.486,-86 636.486,-122"/>
<text text-anchor="middle" x="562" y="-99.8" font-family="Times,serif" font-size="14.00" fill="#000000">VideoBlockComponent</text>
</g>
<!-- VideoBlockComponent&#45;&gt;ProfileComponentsModule -->
<g id="edge8" class="edge">
<title>VideoBlockComponent&#45;&gt;ProfileComponentsModule</title>
<path fill="none" stroke="#000000" d="M583.9977,-122.1243C583.9977,-136.7832 583.9977,-155 583.9977,-155 583.9977,-155 811.3977,-155 811.3977,-155"/>
<polygon fill="#000000" stroke="#000000" points="811.3977,-158.5001 821.3977,-155 811.3976,-151.5001 811.3977,-158.5001"/>
</g>
<!-- TitleComponent -->
<g id="node9" class="node">
<title>TitleComponent</title>
<polygon fill="#ffffb3" stroke="#000000" points="469.7716,-122 362.2284,-122 362.2284,-86 469.7716,-86 469.7716,-122"/>
<text text-anchor="middle" x="416" y="-99.8" font-family="Times,serif" font-size="14.00" fill="#000000">TitleComponent</text>
</g>
<!-- TitleComponent&#45;&gt;ProfileComponentsModule -->
<g id="edge9" class="edge">
<title>TitleComponent&#45;&gt;ProfileComponentsModule</title>
<path fill="none" stroke="#000000" d="M465.7607,-122.0091C465.7607,-138.0494 465.7607,-159 465.7607,-159 465.7607,-159 811.6383,-159 811.6383,-159"/>
<polygon fill="#000000" stroke="#000000" points="811.6384,-162.5001 821.6383,-159 811.6383,-155.5001 811.6384,-162.5001"/>
</g>
<!-- VisitedListComponent -->
<g id="node10" class="node">
<title>VisitedListComponent</title>
<polygon fill="#ffffb3" stroke="#000000" points="343.5491,-122 200.4509,-122 200.4509,-86 343.5491,-86 343.5491,-122"/>
<text text-anchor="middle" x="272" y="-99.8" font-family="Times,serif" font-size="14.00" fill="#000000">VisitedListComponent</text>
</g>
<!-- VisitedListComponent&#45;&gt;ProfileComponentsModule -->
<g id="edge10" class="edge">
<title>VisitedListComponent&#45;&gt;ProfileComponentsModule</title>
<path fill="none" stroke="#000000" d="M338.1492,-122.0336C338.1492,-139.0597 338.1492,-162 338.1492,-162 338.1492,-162 811.6002,-162 811.6002,-162"/>
<polygon fill="#000000" stroke="#000000" points="811.6002,-165.5001 821.6002,-162 811.6001,-158.5001 811.6002,-165.5001"/>
</g>
<!-- FabButtonComponent -->
<g id="node11" class="node">
<title>FabButtonComponent</title>
<polygon fill="#ffffb3" stroke="#000000" points="182.4481,-122 41.5519,-122 41.5519,-86 182.4481,-86 182.4481,-122"/>
<text text-anchor="middle" x="112" y="-99.8" font-family="Times,serif" font-size="14.00" fill="#000000">FabButtonComponent</text>
</g>
<!-- FabButtonComponent&#45;&gt;ProfileComponentsModule -->
<g id="edge11" class="edge">
<title>FabButtonComponent&#45;&gt;ProfileComponentsModule</title>
<path fill="none" stroke="#000000" d="M175.0987,-122.2667C175.0987,-140.5552 175.0987,-166 175.0987,-166 175.0987,-166 811.4423,-166 811.4423,-166"/>
<polygon fill="#000000" stroke="#000000" points="811.4423,-169.5001 821.4423,-166 811.4423,-162.5001 811.4423,-169.5001"/>
</g>
<!-- StandardBlockComponent  -->
<g id="node13" class="node">
<title>StandardBlockComponent </title>
<polygon fill="#fb8072" stroke="#000000" points="1872.0372,-252 1703.9628,-252 1703.9628,-216 1872.0372,-216 1872.0372,-252"/>
<text text-anchor="middle" x="1788" y="-229.8" font-family="Times,serif" font-size="14.00" fill="#000000">StandardBlockComponent </text>
</g>
<!-- ProfileComponentsModule&#45;&gt;StandardBlockComponent  -->
<g id="edge12" class="edge">
<title>ProfileComponentsModule&#45;&gt;StandardBlockComponent </title>
<path fill="none" stroke="#000000" stroke-dasharray="5,2" d="M990.4638,-169C1209.4593,-169 1778.625,-169 1778.625,-169 1778.625,-169 1778.625,-205.8939 1778.625,-205.8939"/>
<polygon fill="#000000" stroke="#000000" points="1775.1251,-205.8938 1778.625,-215.8939 1782.1251,-205.8939 1775.1251,-205.8938"/>
</g>
<!-- DisclaimerComponent  -->
<g id="node14" class="node">
<title>DisclaimerComponent </title>
<polygon fill="#fb8072" stroke="#000000" points="1686.2506,-252 1539.7494,-252 1539.7494,-216 1686.2506,-216 1686.2506,-252"/>
<text text-anchor="middle" x="1613" y="-229.8" font-family="Times,serif" font-size="14.00" fill="#000000">DisclaimerComponent </text>
</g>
<!-- ProfileComponentsModule&#45;&gt;DisclaimerComponent  -->
<g id="edge13" class="edge">
<title>ProfileComponentsModule&#45;&gt;DisclaimerComponent </title>
<path fill="none" stroke="#000000" stroke-dasharray="5,2" d="M990.3308,-173C1176.2767,-173 1605.125,-173 1605.125,-173 1605.125,-173 1605.125,-205.698 1605.125,-205.698"/>
<polygon fill="#000000" stroke="#000000" points="1601.6251,-205.698 1605.125,-215.698 1608.6251,-205.698 1601.6251,-205.698"/>
</g>
<!-- StandardListComponent  -->
<g id="node15" class="node">
<title>StandardListComponent </title>
<polygon fill="#fb8072" stroke="#000000" points="1522.3742,-252 1365.6258,-252 1365.6258,-216 1522.3742,-216 1522.3742,-252"/>
<text text-anchor="middle" x="1444" y="-229.8" font-family="Times,serif" font-size="14.00" fill="#000000">StandardListComponent </text>
</g>
<!-- ProfileComponentsModule&#45;&gt;StandardListComponent  -->
<g id="edge14" class="edge">
<title>ProfileComponentsModule&#45;&gt;StandardListComponent </title>
<path fill="none" stroke="#000000" stroke-dasharray="5,2" d="M990.2376,-177C1140.1414,-177 1437.625,-177 1437.625,-177 1437.625,-177 1437.625,-205.9648 1437.625,-205.9648"/>
<polygon fill="#000000" stroke="#000000" points="1434.1251,-205.9648 1437.625,-215.9648 1441.1251,-205.9649 1434.1251,-205.9648"/>
</g>
<!-- StandardTableComponent  -->
<g id="node16" class="node">
<title>StandardTableComponent </title>
<polygon fill="#fb8072" stroke="#000000" points="1348.4685,-252 1181.5315,-252 1181.5315,-216 1348.4685,-216 1348.4685,-252"/>
<text text-anchor="middle" x="1265" y="-229.8" font-family="Times,serif" font-size="14.00" fill="#000000">StandardTableComponent </text>
</g>
<!-- ProfileComponentsModule&#45;&gt;StandardTableComponent  -->
<g id="edge15" class="edge">
<title>ProfileComponentsModule&#45;&gt;StandardTableComponent </title>
<path fill="none" stroke="#000000" stroke-dasharray="5,2" d="M990.4695,-180C1087.6552,-180 1234.0054,-180 1234.0054,-180 1234.0054,-180 1234.0054,-205.7181 1234.0054,-205.7181"/>
<polygon fill="#000000" stroke="#000000" points="1230.5055,-205.718 1234.0054,-215.7181 1237.5055,-205.7181 1230.5055,-205.718"/>
</g>
<!-- StandardRichComponent  -->
<g id="node17" class="node">
<title>StandardRichComponent </title>
<polygon fill="#fb8072" stroke="#000000" points="1163.5372,-252 1002.4628,-252 1002.4628,-216 1163.5372,-216 1163.5372,-252"/>
<text text-anchor="middle" x="1083" y="-229.8" font-family="Times,serif" font-size="14.00" fill="#000000">StandardRichComponent </text>
</g>
<!-- ProfileComponentsModule&#45;&gt;StandardRichComponent  -->
<g id="edge16" class="edge">
<title>ProfileComponentsModule&#45;&gt;StandardRichComponent </title>
<path fill="none" stroke="#000000" stroke-dasharray="5,2" d="M990.2572,-184C1034.7032,-184 1080.125,-184 1080.125,-184 1080.125,-184 1080.125,-205.9489 1080.125,-205.9489"/>
<polygon fill="#000000" stroke="#000000" points="1076.6251,-205.9488 1080.125,-215.9489 1083.6251,-205.9489 1076.6251,-205.9488"/>
</g>
<!-- CarouselListComponent  -->
<g id="node18" class="node">
<title>CarouselListComponent </title>
<polygon fill="#fb8072" stroke="#000000" points="984.3728,-252 827.6272,-252 827.6272,-216 984.3728,-216 984.3728,-252"/>
<text text-anchor="middle" x="906" y="-229.8" font-family="Times,serif" font-size="14.00" fill="#000000">CarouselListComponent </text>
</g>
<!-- ProfileComponentsModule&#45;&gt;CarouselListComponent  -->
<g id="edge17" class="edge">
<title>ProfileComponentsModule&#45;&gt;CarouselListComponent </title>
<path fill="none" stroke="#000000" stroke-dasharray="5,2" d="M906,-187.1061C906,-187.1061 906,-205.991 906,-205.991"/>
<polygon fill="#000000" stroke="#000000" points="902.5001,-205.9909 906,-215.991 909.5001,-205.991 902.5001,-205.9909"/>
</g>
<!-- CarouselItemComponent  -->
<g id="node19" class="node">
<title>CarouselItemComponent </title>
<polygon fill="#fb8072" stroke="#000000" points="810.2506,-252 649.7494,-252 649.7494,-216 810.2506,-216 810.2506,-252"/>
<text text-anchor="middle" x="730" y="-229.8" font-family="Times,serif" font-size="14.00" fill="#000000">CarouselItemComponent </text>
</g>
<!-- ProfileComponentsModule&#45;&gt;CarouselItemComponent  -->
<g id="edge18" class="edge">
<title>ProfileComponentsModule&#45;&gt;CarouselItemComponent </title>
<path fill="none" stroke="#000000" stroke-dasharray="5,2" d="M821.7305,-184C777.4934,-184 732.375,-184 732.375,-184 732.375,-184 732.375,-205.9489 732.375,-205.9489"/>
<polygon fill="#000000" stroke="#000000" points="728.8751,-205.9488 732.375,-215.9489 735.8751,-205.9489 728.8751,-205.9488"/>
</g>
<!-- VideoBlockComponent  -->
<g id="node20" class="node">
<title>VideoBlockComponent </title>
<polygon fill="#fb8072" stroke="#000000" points="632.4868,-252 479.5132,-252 479.5132,-216 632.4868,-216 632.4868,-252"/>
<text text-anchor="middle" x="556" y="-229.8" font-family="Times,serif" font-size="14.00" fill="#000000">VideoBlockComponent </text>
</g>
<!-- ProfileComponentsModule&#45;&gt;VideoBlockComponent  -->
<g id="edge19" class="edge">
<title>ProfileComponentsModule&#45;&gt;VideoBlockComponent </title>
<path fill="none" stroke="#000000" stroke-dasharray="5,2" d="M821.5218,-180C712.2469,-180 535.7523,-180 535.7523,-180 535.7523,-180 535.7523,-205.7181 535.7523,-205.7181"/>
<polygon fill="#000000" stroke="#000000" points="532.2524,-205.718 535.7523,-215.7181 539.2524,-205.7181 532.2524,-205.718"/>
</g>
<!-- TitleComponent  -->
<g id="node21" class="node">
<title>TitleComponent </title>
<polygon fill="#fb8072" stroke="#000000" points="461.7717,-252 350.2283,-252 350.2283,-216 461.7717,-216 461.7717,-252"/>
<text text-anchor="middle" x="406" y="-229.8" font-family="Times,serif" font-size="14.00" fill="#000000">TitleComponent </text>
</g>
<!-- ProfileComponentsModule&#45;&gt;TitleComponent  -->
<g id="edge20" class="edge">
<title>ProfileComponentsModule&#45;&gt;TitleComponent </title>
<path fill="none" stroke="#000000" stroke-dasharray="5,2" d="M821.6183,-177C680.4903,-177 411.875,-177 411.875,-177 411.875,-177 411.875,-205.9648 411.875,-205.9648"/>
<polygon fill="#000000" stroke="#000000" points="408.3751,-205.9648 411.875,-215.9648 415.3751,-205.9649 408.3751,-205.9648"/>
</g>
<!-- VisitedListComponent  -->
<g id="node22" class="node">
<title>VisitedListComponent </title>
<polygon fill="#fb8072" stroke="#000000" points="332.5484,-252 185.4516,-252 185.4516,-216 332.5484,-216 332.5484,-252"/>
<text text-anchor="middle" x="259" y="-229.8" font-family="Times,serif" font-size="14.00" fill="#000000">VisitedListComponent </text>
</g>
<!-- ProfileComponentsModule&#45;&gt;VisitedListComponent  -->
<g id="edge21" class="edge">
<title>ProfileComponentsModule&#45;&gt;VisitedListComponent </title>
<path fill="none" stroke="#000000" stroke-dasharray="5,2" d="M821.7225,-173C648.0366,-173 266.375,-173 266.375,-173 266.375,-173 266.375,-205.698 266.375,-205.698"/>
<polygon fill="#000000" stroke="#000000" points="262.8751,-205.698 266.375,-215.698 269.8751,-205.698 262.8751,-205.698"/>
</g>
<!-- FabButtonComponent  -->
<g id="node23" class="node">
<title>FabButtonComponent </title>
<polygon fill="#fb8072" stroke="#000000" points="167.9474,-252 24.0526,-252 24.0526,-216 167.9474,-216 167.9474,-252"/>
<text text-anchor="middle" x="96" y="-229.8" font-family="Times,serif" font-size="14.00" fill="#000000">FabButtonComponent </text>
</g>
<!-- ProfileComponentsModule&#45;&gt;FabButtonComponent  -->
<g id="edge22" class="edge">
<title>ProfileComponentsModule&#45;&gt;FabButtonComponent </title>
<path fill="none" stroke="#000000" stroke-dasharray="5,2" d="M821.7798,-169C616.094,-169 104.875,-169 104.875,-169 104.875,-169 104.875,-205.8939 104.875,-205.8939"/>
<polygon fill="#000000" stroke="#000000" points="101.3751,-205.8938 104.875,-215.8939 108.3751,-205.8939 101.3751,-205.8938"/>
</g>
</g>
</svg>
