<?xml version="1.0" encoding="UTF-8" standalone="no"?>
<!DOCTYPE svg PUBLIC "-//W3C//DTD SVG 1.1//EN"
 "http://www.w3.org/Graphics/SVG/1.1/DTD/svg11.dtd">
<!-- Generated by graphviz version 2.40.1 (20161225.0304)
 -->
<!-- Title: dependencies Pages: 1 -->
<svg width="504pt" height="284pt"
 viewBox="0.00 0.00 504.00 284.00" xmlns="http://www.w3.org/2000/svg" xmlns:xlink="http://www.w3.org/1999/xlink">
<g id="graph0" class="graph" transform="scale(1 1) rotate(0) translate(4 280)">
<title>dependencies</title>
<polygon fill="#ffffff" stroke="transparent" points="-4,4 -4,-280 500,-280 500,4 -4,4"/>
<text text-anchor="start" x="227.0091" y="-42.4" font-family="sans-serif" font-weight="bold" font-size="14.00" fill="#000000">Legend</text>
<polygon fill="#ffffb3" stroke="transparent" points="14,-10 14,-30 34,-30 34,-10 14,-10"/>
<text text-anchor="start" x="37.629" y="-15.4" font-family="sans-serif" font-size="14.00" fill="#000000"> &#160;Declarations</text>
<polygon fill="#8dd3c7" stroke="transparent" points="127,-10 127,-30 147,-30 147,-10 127,-10"/>
<text text-anchor="start" x="150.7251" y="-15.4" font-family="sans-serif" font-size="14.00" fill="#000000"> &#160;Module</text>
<polygon fill="#80b1d3" stroke="transparent" points="213,-10 213,-30 233,-30 233,-10 213,-10"/>
<text text-anchor="start" x="236.7812" y="-15.4" font-family="sans-serif" font-size="14.00" fill="#000000"> &#160;Bootstrap</text>
<polygon fill="#fdb462" stroke="transparent" points="310,-10 310,-30 330,-30 330,-10 310,-10"/>
<text text-anchor="start" x="333.6732" y="-15.4" font-family="sans-serif" font-size="14.00" fill="#000000"> &#160;Providers</text>
<polygon fill="#fb8072" stroke="transparent" points="406,-10 406,-30 426,-30 426,-10 406,-10"/>
<text text-anchor="start" x="429.7258" y="-15.4" font-family="sans-serif" font-size="14.00" fill="#000000"> &#160;Exports</text>
<g id="clust1" class="cluster">
<title>cluster_GxeDocumentationModule</title>
<polygon fill="none" stroke="#000000" stroke-dasharray="1,5" points="49,-70 49,-268 447,-268 447,-70 49,-70"/>
</g>
<g id="clust2" class="cluster">
<title>cluster_GxeDocumentationModule_declarations</title>
<polygon fill="none" stroke="#000000" points="233,-78 233,-130 439,-130 439,-78 233,-78"/>
</g>
<g id="clust4" class="cluster">
<title>cluster_GxeDocumentationModule_imports</title>
<polygon fill="none" stroke="#000000" points="57,-78 57,-130 225,-130 225,-78 57,-78"/>
</g>
<g id="clust5" class="cluster">
<title>cluster_GxeDocumentationModule_exports</title>
<polygon fill="none" stroke="#000000" points="143,-208 143,-260 353,-260 353,-208 143,-208"/>
</g>
<!-- GxeDocumentationComponent -->
<g id="node1" class="node">
<title>GxeDocumentationComponent</title>
<polygon fill="#ffffb3" stroke="#000000" points="431.4664,-122 240.5336,-122 240.5336,-86 431.4664,-86 431.4664,-122"/>
<text text-anchor="middle" x="336" y="-99.8" font-family="Times,serif" font-size="14.00" fill="#000000">GxeDocumentationComponent</text>
</g>
<!-- GxeDocumentationModule -->
<g id="node2" class="node">
<title>GxeDocumentationModule</title>
<polygon fill="#8dd3c7" stroke="#000000" points="332.6839,-187 329.6839,-191 308.6839,-191 305.6839,-187 163.3161,-187 163.3161,-151 332.6839,-151 332.6839,-187"/>
<text text-anchor="middle" x="248" y="-164.8" font-family="Times,serif" font-size="14.00" fill="#000000">GxeDocumentationModule</text>
</g>
<!-- GxeDocumentationComponent&#45;&gt;GxeDocumentationModule -->
<g id="edge1" class="edge">
<title>GxeDocumentationComponent&#45;&gt;GxeDocumentationModule</title>
<path fill="none" stroke="#000000" d="M286.5544,-122.1061C286.5544,-122.1061 286.5544,-140.991 286.5544,-140.991"/>
<polygon fill="#000000" stroke="#000000" points="283.0544,-140.9909 286.5544,-150.991 290.0544,-140.991 283.0544,-140.9909"/>
</g>
<!-- GxeDocumentationComponent  -->
<g id="node4" class="node">
<title>GxeDocumentationComponent </title>
<polygon fill="#fb8072" stroke="#000000" points="345.467,-252 150.533,-252 150.533,-216 345.467,-216 345.467,-252"/>
<text text-anchor="middle" x="248" y="-229.8" font-family="Times,serif" font-size="14.00" fill="#000000">GxeDocumentationComponent </text>
</g>
<!-- GxeDocumentationModule&#45;&gt;GxeDocumentationComponent  -->
<g id="edge3" class="edge">
<title>GxeDocumentationModule&#45;&gt;GxeDocumentationComponent </title>
<path fill="none" stroke="#000000" stroke-dasharray="5,2" d="M248,-187.1061C248,-187.1061 248,-205.991 248,-205.991"/>
<polygon fill="#000000" stroke="#000000" points="244.5001,-205.9909 248,-215.991 251.5001,-205.991 244.5001,-205.9909"/>
</g>
<!-- MainNavigationModule -->
<g id="node3" class="node">
<title>MainNavigationModule</title>
<polygon fill="#8dd3c7" stroke="#000000" points="216.8075,-122 213.8075,-126 192.8075,-126 189.8075,-122 65.1925,-122 65.1925,-86 216.8075,-86 216.8075,-122"/>
<text text-anchor="middle" x="141" y="-99.8" font-family="Times,serif" font-size="14.00" fill="#000000">MainNavigationModule</text>
</g>
<!-- MainNavigationModule&#45;&gt;GxeDocumentationModule -->
<g id="edge2" class="edge">
<title>MainNavigationModule&#45;&gt;GxeDocumentationModule</title>
<path fill="none" stroke="#000000" d="M190.0308,-122.1061C190.0308,-122.1061 190.0308,-140.991 190.0308,-140.991"/>
<polygon fill="#000000" stroke="#000000" points="186.5309,-140.9909 190.0308,-150.991 193.5309,-140.991 186.5309,-140.9909"/>
</g>
</g>
</svg>
