<?xml version="1.0" encoding="UTF-8" standalone="no"?>
<!DOCTYPE svg PUBLIC "-//W3C//DTD SVG 1.1//EN"
 "http://www.w3.org/Graphics/SVG/1.1/DTD/svg11.dtd">
<!-- Generated by graphviz version 2.40.1 (20161225.0304)
 -->
<!-- Title: dependencies Pages: 1 -->
<svg width="504pt" height="284pt"
 viewBox="0.00 0.00 504.00 284.00" xmlns="http://www.w3.org/2000/svg" xmlns:xlink="http://www.w3.org/1999/xlink">
<g id="graph0" class="graph" transform="scale(1 1) rotate(0) translate(4 280)">
<title>dependencies</title>
<polygon fill="#ffffff" stroke="transparent" points="-4,4 -4,-280 500,-280 500,4 -4,4"/>
<text text-anchor="start" x="227.0091" y="-42.4" font-family="sans-serif" font-weight="bold" font-size="14.00" fill="#000000">Legend</text>
<polygon fill="#ffffb3" stroke="transparent" points="14,-10 14,-30 34,-30 34,-10 14,-10"/>
<text text-anchor="start" x="37.629" y="-15.4" font-family="sans-serif" font-size="14.00" fill="#000000"> &#160;Declarations</text>
<polygon fill="#8dd3c7" stroke="transparent" points="127,-10 127,-30 147,-30 147,-10 127,-10"/>
<text text-anchor="start" x="150.7251" y="-15.4" font-family="sans-serif" font-size="14.00" fill="#000000"> &#160;Module</text>
<polygon fill="#80b1d3" stroke="transparent" points="213,-10 213,-30 233,-30 233,-10 213,-10"/>
<text text-anchor="start" x="236.7812" y="-15.4" font-family="sans-serif" font-size="14.00" fill="#000000"> &#160;Bootstrap</text>
<polygon fill="#fdb462" stroke="transparent" points="310,-10 310,-30 330,-30 330,-10 310,-10"/>
<text text-anchor="start" x="333.6732" y="-15.4" font-family="sans-serif" font-size="14.00" fill="#000000"> &#160;Providers</text>
<polygon fill="#fb8072" stroke="transparent" points="406,-10 406,-30 426,-30 426,-10 406,-10"/>
<text text-anchor="start" x="429.7258" y="-15.4" font-family="sans-serif" font-size="14.00" fill="#000000"> &#160;Exports</text>
<g id="clust1" class="cluster">
<title>cluster_GxeDemoModule</title>
<polygon fill="none" stroke="#000000" stroke-dasharray="1,5" points="31,-70 31,-268 465,-268 465,-70 31,-70"/>
</g>
<g id="clust2" class="cluster">
<title>cluster_GxeDemoModule_declarations</title>
<polygon fill="none" stroke="#000000" points="303,-78 303,-130 457,-130 457,-78 303,-78"/>
</g>
<g id="clust4" class="cluster">
<title>cluster_GxeDemoModule_imports</title>
<polygon fill="none" stroke="#000000" points="39,-78 39,-130 295,-130 295,-78 39,-78"/>
</g>
<g id="clust5" class="cluster">
<title>cluster_GxeDemoModule_exports</title>
<polygon fill="none" stroke="#000000" points="146,-208 146,-260 304,-260 304,-208 146,-208"/>
</g>
<!-- GxeDemoComponent -->
<g id="node1" class="node">
<title>GxeDemoComponent</title>
<polygon fill="#ffffb3" stroke="#000000" points="449.3655,-122 310.6345,-122 310.6345,-86 449.3655,-86 449.3655,-122"/>
<text text-anchor="middle" x="380" y="-99.8" font-family="Times,serif" font-size="14.00" fill="#000000">GxeDemoComponent</text>
</g>
<!-- GxeDemoModule -->
<g id="node2" class="node">
<title>GxeDemoModule</title>
<polygon fill="#8dd3c7" stroke="#000000" points="283.5828,-187 280.5828,-191 259.5828,-191 256.5828,-187 166.4172,-187 166.4172,-151 283.5828,-151 283.5828,-187"/>
<text text-anchor="middle" x="225" y="-164.8" font-family="Times,serif" font-size="14.00" fill="#000000">GxeDemoModule</text>
</g>
<!-- GxeDemoComponent&#45;&gt;GxeDemoModule -->
<g id="edge1" class="edge">
<title>GxeDemoComponent&#45;&gt;GxeDemoModule</title>
<path fill="none" stroke="#000000" d="M380,-122.1061C380,-141.3391 380,-169 380,-169 380,-169 293.5989,-169 293.5989,-169"/>
<polygon fill="#000000" stroke="#000000" points="293.5989,-165.5001 283.5989,-169 293.5988,-172.5001 293.5989,-165.5001"/>
</g>
<!-- GxeDemoComponent  -->
<g id="node5" class="node">
<title>GxeDemoComponent </title>
<polygon fill="#fb8072" stroke="#000000" points="296.3659,-252 153.6341,-252 153.6341,-216 296.3659,-216 296.3659,-252"/>
<text text-anchor="middle" x="225" y="-229.8" font-family="Times,serif" font-size="14.00" fill="#000000">GxeDemoComponent </text>
</g>
<!-- GxeDemoModule&#45;&gt;GxeDemoComponent  -->
<g id="edge4" class="edge">
<title>GxeDemoModule&#45;&gt;GxeDemoComponent </title>
<path fill="none" stroke="#000000" stroke-dasharray="5,2" d="M225,-187.1061C225,-187.1061 225,-205.991 225,-205.991"/>
<polygon fill="#000000" stroke="#000000" points="221.5001,-205.9909 225,-215.991 228.5001,-205.991 221.5001,-205.9909"/>
</g>
<!-- GxeGalleryModule -->
<g id="node3" class="node">
<title>GxeGalleryModule</title>
<polygon fill="#8dd3c7" stroke="#000000" points="287.3487,-122 284.3487,-126 263.3487,-126 260.3487,-122 162.6513,-122 162.6513,-86 287.3487,-86 287.3487,-122"/>
<text text-anchor="middle" x="225" y="-99.8" font-family="Times,serif" font-size="14.00" fill="#000000">GxeGalleryModule</text>
</g>
<!-- GxeGalleryModule&#45;&gt;GxeDemoModule -->
<g id="edge2" class="edge">
<title>GxeGalleryModule&#45;&gt;GxeDemoModule</title>
<path fill="none" stroke="#000000" d="M225,-122.1061C225,-122.1061 225,-140.991 225,-140.991"/>
<polygon fill="#000000" stroke="#000000" points="221.5001,-140.9909 225,-150.991 228.5001,-140.991 221.5001,-140.9909"/>
</g>
<!-- DoggoModule -->
<g id="node4" class="node">
<title>DoggoModule</title>
<polygon fill="#8dd3c7" stroke="#000000" points="144.657,-122 141.657,-126 120.657,-126 117.657,-122 47.343,-122 47.343,-86 144.657,-86 144.657,-122"/>
<text text-anchor="middle" x="96" y="-99.8" font-family="Times,serif" font-size="14.00" fill="#000000">DoggoModule</text>
</g>
<!-- DoggoModule&#45;&gt;GxeDemoModule -->
<g id="edge3" class="edge">
<title>DoggoModule&#45;&gt;GxeDemoModule</title>
<path fill="none" stroke="#000000" d="M96,-122.1061C96,-141.3391 96,-169 96,-169 96,-169 156.1625,-169 156.1625,-169"/>
<polygon fill="#000000" stroke="#000000" points="156.1625,-172.5001 166.1625,-169 156.1624,-165.5001 156.1625,-172.5001"/>
</g>
</g>
</svg>
