<?xml version="1.0" encoding="UTF-8" standalone="no"?>
<!DOCTYPE svg PUBLIC "-//W3C//DTD SVG 1.1//EN"
 "http://www.w3.org/Graphics/SVG/1.1/DTD/svg11.dtd">
<!-- Generated by graphviz version 2.40.1 (20161225.0304)
 -->
<!-- Title: dependencies Pages: 1 -->
<svg width="555pt" height="284pt"
 viewBox="0.00 0.00 555.00 284.00" xmlns="http://www.w3.org/2000/svg" xmlns:xlink="http://www.w3.org/1999/xlink">
<g id="graph0" class="graph" transform="scale(1 1) rotate(0) translate(4 280)">
<title>dependencies</title>
<polygon fill="#ffffff" stroke="transparent" points="-4,4 -4,-280 551,-280 551,4 -4,4"/>
<text text-anchor="start" x="252.5091" y="-42.4" font-family="sans-serif" font-weight="bold" font-size="14.00" fill="#000000">Legend</text>
<polygon fill="#ffffb3" stroke="transparent" points="39.5,-10 39.5,-30 59.5,-30 59.5,-10 39.5,-10"/>
<text text-anchor="start" x="63.129" y="-15.4" font-family="sans-serif" font-size="14.00" fill="#000000"> &#160;Declarations</text>
<polygon fill="#8dd3c7" stroke="transparent" points="152.5,-10 152.5,-30 172.5,-30 172.5,-10 152.5,-10"/>
<text text-anchor="start" x="176.2251" y="-15.4" font-family="sans-serif" font-size="14.00" fill="#000000"> &#160;Module</text>
<polygon fill="#80b1d3" stroke="transparent" points="238.5,-10 238.5,-30 258.5,-30 258.5,-10 238.5,-10"/>
<text text-anchor="start" x="262.2812" y="-15.4" font-family="sans-serif" font-size="14.00" fill="#000000"> &#160;Bootstrap</text>
<polygon fill="#fdb462" stroke="transparent" points="335.5,-10 335.5,-30 355.5,-30 355.5,-10 335.5,-10"/>
<text text-anchor="start" x="359.1732" y="-15.4" font-family="sans-serif" font-size="14.00" fill="#000000"> &#160;Providers</text>
<polygon fill="#fb8072" stroke="transparent" points="431.5,-10 431.5,-30 451.5,-30 451.5,-10 431.5,-10"/>
<text text-anchor="start" x="455.2258" y="-15.4" font-family="sans-serif" font-size="14.00" fill="#000000"> &#160;Exports</text>
<g id="clust1" class="cluster">
<title>cluster_AppModule</title>
<polygon fill="none" stroke="#000000" stroke-dasharray="1,5" points="8,-70 8,-268 539,-268 539,-70 8,-70"/>
</g>
<g id="clust2" class="cluster">
<title>cluster_AppModule_declarations</title>
<polygon fill="none" stroke="#000000" points="409,-78 409,-130 531,-130 531,-78 409,-78"/>
</g>
<g id="clust4" class="cluster">
<title>cluster_AppModule_imports</title>
<polygon fill="none" stroke="#000000" points="172,-78 172,-130 401,-130 401,-78 172,-78"/>
</g>
<g id="clust6" class="cluster">
<title>cluster_AppModule_bootstrap</title>
<polygon fill="none" stroke="#000000" points="211,-208 211,-260 335,-260 335,-208 211,-208"/>
</g>
<g id="clust7" class="cluster">
<title>cluster_AppModule_providers</title>
<polygon fill="none" stroke="#000000" points="16,-78 16,-130 164,-130 164,-78 16,-78"/>
</g>
<!-- AppComponent -->
<g id="node1" class="node">
<title>AppComponent</title>
<polygon fill="#ffffb3" stroke="#000000" points="522.9399,-122 417.0601,-122 417.0601,-86 522.9399,-86 522.9399,-122"/>
<text text-anchor="middle" x="470" y="-99.8" font-family="Times,serif" font-size="14.00" fill="#000000">AppComponent</text>
</g>
<!-- AppModule -->
<g id="node2" class="node">
<title>AppModule</title>
<polygon fill="#8dd3c7" stroke="#000000" points="314.6571,-187 311.6571,-191 290.6571,-191 287.6571,-187 231.3429,-187 231.3429,-151 314.6571,-151 314.6571,-187"/>
<text text-anchor="middle" x="273" y="-164.8" font-family="Times,serif" font-size="14.00" fill="#000000">AppModule</text>
</g>
<!-- AppComponent&#45;&gt;AppModule -->
<g id="edge1" class="edge">
<title>AppComponent&#45;&gt;AppModule</title>
<path fill="none" stroke="#000000" d="M470,-122.1061C470,-141.3391 470,-169 470,-169 470,-169 324.7786,-169 324.7786,-169"/>
<polygon fill="#000000" stroke="#000000" points="324.7787,-165.5001 314.7786,-169 324.7786,-172.5001 324.7787,-165.5001"/>
</g>
<!-- AppComponent  -->
<g id="node5" class="node">
<title>AppComponent </title>
<polygon fill="#80b1d3" stroke="#000000" points="327.439,-252 218.561,-252 218.561,-216 327.439,-216 327.439,-252"/>
<text text-anchor="middle" x="273" y="-229.8" font-family="Times,serif" font-size="14.00" fill="#000000">AppComponent </text>
</g>
<!-- AppModule&#45;&gt;AppComponent  -->
<g id="edge4" class="edge">
<title>AppModule&#45;&gt;AppComponent </title>
<path fill="none" stroke="#000000" stroke-dasharray="1,5" d="M273,-187.1061C273,-187.1061 273,-205.991 273,-205.991"/>
<polygon fill="#000000" stroke="#000000" points="269.5001,-205.9909 273,-215.991 276.5001,-205.991 269.5001,-205.9909"/>
</g>
<!-- GxeGalleryModule -->
<g id="node3" class="node">
<title>GxeGalleryModule</title>
<polygon fill="#8dd3c7" stroke="#000000" points="393.3487,-122 390.3487,-126 369.3487,-126 366.3487,-122 268.6513,-122 268.6513,-86 393.3487,-86 393.3487,-122"/>
<text text-anchor="middle" x="331" y="-99.8" font-family="Times,serif" font-size="14.00" fill="#000000">GxeGalleryModule</text>
</g>
<!-- GxeGalleryModule&#45;&gt;AppModule -->
<g id="edge2" class="edge">
<title>GxeGalleryModule&#45;&gt;AppModule</title>
<path fill="none" stroke="#000000" d="M291.702,-122.1061C291.702,-122.1061 291.702,-140.991 291.702,-140.991"/>
<polygon fill="#000000" stroke="#000000" points="288.202,-140.9909 291.702,-150.991 295.202,-140.991 288.202,-140.9909"/>
</g>
<!-- !. ? .() : [] -->
<g id="node4" class="node">
<title>!. ? .() : []</title>
<polygon fill="#8dd3c7" stroke="#000000" points="250.4094,-122 247.4094,-126 226.4094,-126 223.4094,-122 179.5906,-122 179.5906,-86 250.4094,-86 250.4094,-122"/>
<text text-anchor="middle" x="215" y="-99.8" font-family="Times,serif" font-size="14.00" fill="#000000">!. ? .() : []</text>
</g>
<!-- !. ? .() : []&#45;&gt;AppModule -->
<g id="edge3" class="edge">
<title>!. ? .() : []&#45;&gt;AppModule</title>
<path fill="none" stroke="#000000" d="M240.688,-122.1061C240.688,-122.1061 240.688,-140.991 240.688,-140.991"/>
<polygon fill="#000000" stroke="#000000" points="237.188,-140.9909 240.688,-150.991 244.188,-140.991 237.188,-140.9909"/>
</g>
<!-- DoggoService -->
<g id="node6" class="node">
<title>DoggoService</title>
<ellipse fill="#fdb462" stroke="#000000" cx="90" cy="-104" rx="66.055" ry="18"/>
<text text-anchor="middle" x="90" y="-99.8" font-family="Times,serif" font-size="14.00" fill="#000000">DoggoService</text>
</g>
<!-- DoggoService&#45;&gt;AppModule -->
<g id="edge5" class="edge">
<title>DoggoService&#45;&gt;AppModule</title>
<path fill="none" stroke="#000000" d="M90,-122.1061C90,-141.3391 90,-169 90,-169 90,-169 221.0161,-169 221.0161,-169"/>
<polygon fill="#000000" stroke="#000000" points="221.0161,-172.5001 231.0161,-169 221.0161,-165.5001 221.0161,-172.5001"/>
</g>
</g>
</svg>
