<?xml version="1.0" encoding="UTF-8" standalone="no"?>
<!DOCTYPE svg PUBLIC "-//W3C//DTD SVG 1.1//EN"
 "http://www.w3.org/Graphics/SVG/1.1/DTD/svg11.dtd">
<!-- Generated by graphviz version 2.40.1 (20161225.0304)
 -->
<!-- Title: dependencies Pages: 1 -->
<svg width="1744pt" height="360pt"
 viewBox="0.00 0.00 1744.00 360.00" xmlns="http://www.w3.org/2000/svg" xmlns:xlink="http://www.w3.org/1999/xlink">
<g id="graph0" class="graph" transform="scale(1 1) rotate(0) translate(4 356)">
<title>dependencies</title>
<polygon fill="#ffffff" stroke="transparent" points="-4,4 -4,-356 1740,-356 1740,4 -4,4"/>
<text text-anchor="start" x="847.0091" y="-42.4" font-family="sans-serif" font-weight="bold" font-size="14.00" fill="#000000">Legend</text>
<polygon fill="#ffffb3" stroke="transparent" points="634,-10 634,-30 654,-30 654,-10 634,-10"/>
<text text-anchor="start" x="657.629" y="-15.4" font-family="sans-serif" font-size="14.00" fill="#000000"> &#160;Declarations</text>
<polygon fill="#8dd3c7" stroke="transparent" points="747,-10 747,-30 767,-30 767,-10 747,-10"/>
<text text-anchor="start" x="770.7251" y="-15.4" font-family="sans-serif" font-size="14.00" fill="#000000"> &#160;Module</text>
<polygon fill="#80b1d3" stroke="transparent" points="833,-10 833,-30 853,-30 853,-10 833,-10"/>
<text text-anchor="start" x="856.7812" y="-15.4" font-family="sans-serif" font-size="14.00" fill="#000000"> &#160;Bootstrap</text>
<polygon fill="#fdb462" stroke="transparent" points="930,-10 930,-30 950,-30 950,-10 930,-10"/>
<text text-anchor="start" x="953.6732" y="-15.4" font-family="sans-serif" font-size="14.00" fill="#000000"> &#160;Providers</text>
<polygon fill="#fb8072" stroke="transparent" points="1026,-10 1026,-30 1046,-30 1046,-10 1026,-10"/>
<text text-anchor="start" x="1049.7258" y="-15.4" font-family="sans-serif" font-size="14.00" fill="#000000"> &#160;Exports</text>
<g id="clust1" class="cluster">
<title>cluster_AppModule</title>
<polygon fill="none" stroke="#000000" stroke-dasharray="1,5" points="562,-146 562,-344 1093,-344 1093,-146 562,-146"/>
</g>
<g id="clust2" class="cluster">
<title>cluster_AppModule_declarations</title>
<polygon fill="none" stroke="#000000" points="963,-154 963,-206 1085,-206 1085,-154 963,-154"/>
</g>
<g id="clust4" class="cluster">
<title>cluster_AppModule_imports</title>
<polygon fill="none" stroke="#000000" points="726,-154 726,-206 955,-206 955,-154 726,-154"/>
</g>
<g id="clust6" class="cluster">
<title>cluster_AppModule_bootstrap</title>
<polygon fill="none" stroke="#000000" points="765,-284 765,-336 889,-336 889,-284 765,-284"/>
</g>
<g id="clust7" class="cluster">
<title>cluster_AppModule_providers</title>
<polygon fill="none" stroke="#000000" points="570,-154 570,-206 718,-206 718,-154 570,-154"/>
</g>
<g id="clust8" class="cluster">
<title>cluster_GxeGalleryModule</title>
<polygon fill="none" stroke="#000000" stroke-dasharray="1,5" points="8,-70 8,-138 1728,-138 1728,-70 8,-70"/>
</g>
<g id="clust9" class="cluster">
<title>cluster_GxeGalleryModule_declarations</title>
<polygon fill="none" stroke="#000000" points="1075,-78 1075,-130 1720,-130 1720,-78 1075,-78"/>
</g>
<g id="clust15" class="cluster">
<title>cluster_GxeGalleryModule_exports</title>
<polygon fill="none" stroke="#000000" points="408,-78 408,-130 1067,-130 1067,-78 408,-78"/>
</g>
<g id="clust17" class="cluster">
<title>cluster_GxeGalleryModule_providers</title>
<polygon fill="none" stroke="#000000" points="16,-78 16,-130 400,-130 400,-78 16,-78"/>
</g>
<!-- AppComponent -->
<g id="node1" class="node">
<title>AppComponent</title>
<polygon fill="#ffffb3" stroke="#000000" points="1076.9399,-198 971.0601,-198 971.0601,-162 1076.9399,-162 1076.9399,-198"/>
<text text-anchor="middle" x="1024" y="-175.8" font-family="Times,serif" font-size="14.00" fill="#000000">AppComponent</text>
</g>
<!-- AppModule -->
<g id="node2" class="node">
<title>AppModule</title>
<polygon fill="#8dd3c7" stroke="#000000" points="868.6571,-263 865.6571,-267 844.6571,-267 841.6571,-263 785.3429,-263 785.3429,-227 868.6571,-227 868.6571,-263"/>
<text text-anchor="middle" x="827" y="-240.8" font-family="Times,serif" font-size="14.00" fill="#000000">AppModule</text>
</g>
<!-- AppComponent&#45;&gt;AppModule -->
<g id="edge1" class="edge">
<title>AppComponent&#45;&gt;AppModule</title>
<path fill="none" stroke="#000000" d="M1024,-198.1061C1024,-217.3391 1024,-245 1024,-245 1024,-245 878.7786,-245 878.7786,-245"/>
<polygon fill="#000000" stroke="#000000" points="878.7787,-241.5001 868.7786,-245 878.7786,-248.5001 878.7787,-241.5001"/>
</g>
<!-- AppComponent  -->
<g id="node5" class="node">
<title>AppComponent </title>
<polygon fill="#80b1d3" stroke="#000000" points="881.439,-328 772.561,-328 772.561,-292 881.439,-292 881.439,-328"/>
<text text-anchor="middle" x="827" y="-305.8" font-family="Times,serif" font-size="14.00" fill="#000000">AppComponent </text>
</g>
<!-- AppModule&#45;&gt;AppComponent  -->
<g id="edge4" class="edge">
<title>AppModule&#45;&gt;AppComponent </title>
<path fill="none" stroke="#000000" stroke-dasharray="1,5" d="M827,-263.1061C827,-263.1061 827,-281.991 827,-281.991"/>
<polygon fill="#000000" stroke="#000000" points="823.5001,-281.9909 827,-291.991 830.5001,-281.991 823.5001,-281.9909"/>
</g>
<!-- GxeGalleryModule -->
<g id="node3" class="node">
<title>GxeGalleryModule</title>
<polygon fill="#8dd3c7" stroke="#000000" points="947.3487,-198 944.3487,-202 923.3487,-202 920.3487,-198 822.6513,-198 822.6513,-162 947.3487,-162 947.3487,-198"/>
<text text-anchor="middle" x="885" y="-175.8" font-family="Times,serif" font-size="14.00" fill="#000000">GxeGalleryModule</text>
</g>
<!-- GxeGalleryModule&#45;&gt;AppModule -->
<g id="edge2" class="edge">
<title>GxeGalleryModule&#45;&gt;AppModule</title>
<path fill="none" stroke="#000000" d="M845.702,-198.1061C845.702,-198.1061 845.702,-216.991 845.702,-216.991"/>
<polygon fill="#000000" stroke="#000000" points="842.202,-216.9909 845.702,-226.991 849.202,-216.991 842.202,-216.9909"/>
</g>
<!-- GalleryMasterComponent  -->
<g id="node11" class="node">
<title>GalleryMasterComponent </title>
<polygon fill="#fb8072" stroke="#000000" points="1058.6799,-122 893.3201,-122 893.3201,-86 1058.6799,-86 1058.6799,-122"/>
<text text-anchor="middle" x="976" y="-99.8" font-family="Times,serif" font-size="14.00" fill="#000000">GalleryMasterComponent </text>
</g>
<!-- GxeGalleryModule&#45;&gt;GalleryMasterComponent  -->
<g id="edge10" class="edge">
<title>GxeGalleryModule&#45;&gt;GalleryMasterComponent </title>
<path fill="none" stroke="#000000" stroke-dasharray="5,2" d="M902.2042,-161.9891C902.2042,-161.9891 902.2042,-132.145 902.2042,-132.145"/>
<polygon fill="#000000" stroke="#000000" points="905.7043,-132.145 902.2042,-122.145 898.7043,-132.1451 905.7043,-132.145"/>
</g>
<!-- GalleryDetailComponent  -->
<g id="node12" class="node">
<title>GalleryDetailComponent </title>
<polygon fill="#fb8072" stroke="#000000" points="875.5176,-122 714.4824,-122 714.4824,-86 875.5176,-86 875.5176,-122"/>
<text text-anchor="middle" x="795" y="-99.8" font-family="Times,serif" font-size="14.00" fill="#000000">GalleryDetailComponent </text>
</g>
<!-- GxeGalleryModule&#45;&gt;GalleryDetailComponent  -->
<g id="edge11" class="edge">
<title>GxeGalleryModule&#45;&gt;GalleryDetailComponent </title>
<path fill="none" stroke="#000000" stroke-dasharray="5,2" d="M866.6866,-161.9891C866.6866,-161.9891 866.6866,-132.145 866.6866,-132.145"/>
<polygon fill="#000000" stroke="#000000" points="870.1867,-132.145 866.6866,-122.145 863.1867,-132.1451 870.1867,-132.145"/>
</g>
<!-- ItemComponent  -->
<g id="node13" class="node">
<title>ItemComponent </title>
<polygon fill="#fb8072" stroke="#000000" points="696.4899,-122 585.5101,-122 585.5101,-86 696.4899,-86 696.4899,-122"/>
<text text-anchor="middle" x="641" y="-99.8" font-family="Times,serif" font-size="14.00" fill="#000000">ItemComponent </text>
</g>
<!-- GxeGalleryModule&#45;&gt;ItemComponent  -->
<g id="edge12" class="edge">
<title>GxeGalleryModule&#45;&gt;ItemComponent </title>
<path fill="none" stroke="#000000" stroke-dasharray="5,2" d="M857.8644,-161.68C857.8644,-153.2117 857.8644,-145 857.8644,-145 857.8644,-145 641,-145 641,-145 641,-145 641,-132.1025 641,-132.1025"/>
<polygon fill="#000000" stroke="#000000" points="644.5001,-132.1025 641,-122.1025 637.5001,-132.1026 644.5001,-132.1025"/>
</g>
<!-- GalleryItemComponent  -->
<g id="node14" class="node">
<title>GalleryItemComponent </title>
<polygon fill="#fb8072" stroke="#000000" points="568.4671,-122 415.5329,-122 415.5329,-86 568.4671,-86 568.4671,-122"/>
<text text-anchor="middle" x="492" y="-99.8" font-family="Times,serif" font-size="14.00" fill="#000000">GalleryItemComponent </text>
</g>
<!-- GxeGalleryModule&#45;&gt;GalleryItemComponent  -->
<g id="edge13" class="edge">
<title>GxeGalleryModule&#45;&gt;GalleryItemComponent </title>
<path fill="none" stroke="#000000" stroke-dasharray="5,2" d="M849.0423,-161.9672C849.0423,-155.1474 849.0423,-149 849.0423,-149 849.0423,-149 492,-149 492,-149 492,-149 492,-132.0439 492,-132.0439"/>
<polygon fill="#000000" stroke="#000000" points="495.5001,-132.0439 492,-122.0439 488.5001,-132.044 495.5001,-132.0439"/>
</g>
<!-- !. ? .() : [] -->
<g id="node4" class="node">
<title>!. ? .() : []</title>
<polygon fill="#8dd3c7" stroke="#000000" points="804.4094,-198 801.4094,-202 780.4094,-202 777.4094,-198 733.5906,-198 733.5906,-162 804.4094,-162 804.4094,-198"/>
<text text-anchor="middle" x="769" y="-175.8" font-family="Times,serif" font-size="14.00" fill="#000000">!. ? .() : []</text>
</g>
<!-- !. ? .() : []&#45;&gt;AppModule -->
<g id="edge3" class="edge">
<title>!. ? .() : []&#45;&gt;AppModule</title>
<path fill="none" stroke="#000000" d="M794.688,-198.1061C794.688,-198.1061 794.688,-216.991 794.688,-216.991"/>
<polygon fill="#000000" stroke="#000000" points="791.188,-216.9909 794.688,-226.991 798.188,-216.991 791.188,-216.9909"/>
</g>
<!-- DoggoService -->
<g id="node6" class="node">
<title>DoggoService</title>
<ellipse fill="#fdb462" stroke="#000000" cx="644" cy="-180" rx="66.055" ry="18"/>
<text text-anchor="middle" x="644" y="-175.8" font-family="Times,serif" font-size="14.00" fill="#000000">DoggoService</text>
</g>
<!-- DoggoService&#45;&gt;AppModule -->
<g id="edge5" class="edge">
<title>DoggoService&#45;&gt;AppModule</title>
<path fill="none" stroke="#000000" d="M644,-198.1061C644,-217.3391 644,-245 644,-245 644,-245 775.0161,-245 775.0161,-245"/>
<polygon fill="#000000" stroke="#000000" points="775.0161,-248.5001 785.0161,-245 775.0161,-241.5001 775.0161,-248.5001"/>
</g>
<!-- GalleryItemComponent -->
<g id="node7" class="node">
<title>GalleryItemComponent</title>
<polygon fill="#ffffb3" stroke="#000000" points="1712.4664,-122 1563.5336,-122 1563.5336,-86 1712.4664,-86 1712.4664,-122"/>
<text text-anchor="middle" x="1638" y="-99.8" font-family="Times,serif" font-size="14.00" fill="#000000">GalleryItemComponent</text>
</g>
<!-- GalleryItemComponent&#45;&gt;GxeGalleryModule -->
<g id="edge6" class="edge">
<title>GalleryItemComponent&#45;&gt;GxeGalleryModule</title>
<path fill="none" stroke="#000000" d="M1638,-122.4218C1638,-131.2791 1638,-140 1638,-140 1638,-140 938.3803,-140 938.3803,-140 938.3803,-140 938.3803,-151.8726 938.3803,-151.8726"/>
<polygon fill="#000000" stroke="#000000" points="934.8804,-151.8725 938.3803,-161.8726 941.8804,-151.8726 934.8804,-151.8725"/>
</g>
<!-- GalleryMasterComponent -->
<g id="node8" class="node">
<title>GalleryMasterComponent</title>
<polygon fill="#ffffb3" stroke="#000000" points="1545.1797,-122 1382.8203,-122 1382.8203,-86 1545.1797,-86 1545.1797,-122"/>
<text text-anchor="middle" x="1464" y="-99.8" font-family="Times,serif" font-size="14.00" fill="#000000">GalleryMasterComponent</text>
</g>
<!-- GalleryMasterComponent&#45;&gt;GxeGalleryModule -->
<g id="edge7" class="edge">
<title>GalleryMasterComponent&#45;&gt;GxeGalleryModule</title>
<path fill="none" stroke="#000000" d="M1464,-122.2434C1464,-129.4297 1464,-136 1464,-136 1464,-136 929.3363,-136 929.3363,-136 929.3363,-136 929.3363,-151.8495 929.3363,-151.8495"/>
<polygon fill="#000000" stroke="#000000" points="925.8364,-151.8494 929.3363,-161.8495 932.8364,-151.8495 925.8364,-151.8494"/>
</g>
<!-- GalleryDetailComponent -->
<g id="node9" class="node">
<title>GalleryDetailComponent</title>
<polygon fill="#ffffb3" stroke="#000000" points="1364.5183,-122 1207.4817,-122 1207.4817,-86 1364.5183,-86 1364.5183,-122"/>
<text text-anchor="middle" x="1286" y="-99.8" font-family="Times,serif" font-size="14.00" fill="#000000">GalleryDetailComponent</text>
</g>
<!-- GalleryDetailComponent&#45;&gt;GxeGalleryModule -->
<g id="edge8" class="edge">
<title>GalleryDetailComponent&#45;&gt;GxeGalleryModule</title>
<path fill="none" stroke="#000000" d="M1286,-122.1592C1286,-127.0433 1286,-131 1286,-131 1286,-131 920.2923,-131 920.2923,-131 920.2923,-131 920.2923,-151.7542 920.2923,-151.7542"/>
<polygon fill="#000000" stroke="#000000" points="916.7923,-151.7542 920.2923,-161.7542 923.7923,-151.7542 916.7923,-151.7542"/>
</g>
<!-- ItemComponent -->
<g id="node10" class="node">
<title>ItemComponent</title>
<polygon fill="#ffffb3" stroke="#000000" points="1189.4888,-122 1082.5112,-122 1082.5112,-86 1189.4888,-86 1189.4888,-122"/>
<text text-anchor="middle" x="1136" y="-99.8" font-family="Times,serif" font-size="14.00" fill="#000000">ItemComponent</text>
</g>
<!-- ItemComponent&#45;&gt;GxeGalleryModule -->
<g id="edge9" class="edge">
<title>ItemComponent&#45;&gt;GxeGalleryModule</title>
<path fill="none" stroke="#000000" d="M1136,-122.1223C1136,-124.9729 1136,-127 1136,-127 1136,-127 911.2482,-127 911.2482,-127 911.2482,-127 911.2482,-151.7604 911.2482,-151.7604"/>
<polygon fill="#000000" stroke="#000000" points="907.7483,-151.7604 911.2482,-161.7604 914.7483,-151.7604 907.7483,-151.7604"/>
</g>
<!-- WindowScrolling -->
<g id="node15" class="node">
<title>WindowScrolling</title>
<ellipse fill="#fdb462" stroke="#000000" cx="312" cy="-104" rx="79.8972" ry="18"/>
<text text-anchor="middle" x="312" y="-99.8" font-family="Times,serif" font-size="14.00" fill="#000000">WindowScrolling</text>
</g>
<!-- WindowScrolling&#45;&gt;GxeGalleryModule -->
<g id="edge14" class="edge">
<title>WindowScrolling&#45;&gt;GxeGalleryModule</title>
<path fill="none" stroke="#000000" d="M312,-122.0511C312,-136.373 312,-154 312,-154 312,-154 840.2201,-154 840.2201,-154 840.2201,-154 840.2201,-154.7942 840.2201,-154.7942"/>
<polygon fill="#000000" stroke="#000000" points="836.7202,-151.9421 840.2201,-161.9421 843.7202,-151.9422 836.7202,-151.9421"/>
</g>
<!-- SwipeVerticalService -->
<g id="node16" class="node">
<title>SwipeVerticalService</title>
<ellipse fill="#fdb462" stroke="#000000" cx="119" cy="-104" rx="95.4559" ry="18"/>
<text text-anchor="middle" x="119" y="-99.8" font-family="Times,serif" font-size="14.00" fill="#000000">SwipeVerticalService</text>
</g>
<!-- SwipeVerticalService&#45;&gt;GxeGalleryModule -->
<g id="edge15" class="edge">
<title>SwipeVerticalService&#45;&gt;GxeGalleryModule</title>
<path fill="none" stroke="#000000" d="M119,-122.2819C119,-137.9478 119,-158 119,-158 119,-158 831.3979,-158 831.3979,-158 831.3979,-158 831.3979,-158.3832 831.3979,-158.3832"/>
<polygon fill="#000000" stroke="#000000" points="827.8982,-151.832 831.3979,-161.8321 834.8982,-151.8322 827.8982,-151.832"/>
</g>
</g>
</svg>
